<?xml version="1.0" encoding="utf-8"?>
<!-- Generator: Adobe Illustrator 26.4.1, SVG Export Plug-In . SVG Version: 6.00 Build 0)  -->
<svg version="1.1" id="_图层_2" xmlns="http://www.w3.org/2000/svg" xmlns:xlink="http://www.w3.org/1999/xlink" x="0px" y="0px"
	 viewBox="0 0 34 69.6" style="enable-background:new 0 0 34 69.6;" xml:space="preserve">
<style type="text/css">
	.st0{fill:url(#SVGID_1_);}
	.st1{fill:url(#SVGID_00000012468341324815667790000010549232073348297365_);}
	.st2{fill:url(#SVGID_00000127743636316639301560000009114571049019229082_);}
	.st3{fill:url(#SVGID_00000128448035502730775090000004006819251897145516_);}
	.st4{fill:url(#SVGID_00000017484722294056324700000002014903947718065806_);}
	.st5{fill:url(#SVGID_00000169557219285435828510000009303921859658121146_);}
	.st6{fill:url(#SVGID_00000001640671911390937340000015775746901169913509_);}
	.st7{fill:url(#SVGID_00000088850311933086761440000017009602114652637866_);}
	.st8{fill:url(#SVGID_00000152977147084296617100000003598708946047733162_);}
	.st9{fill:url(#SVGID_00000116958300789889817760000001799129144019484312_);}
	.st10{fill:url(#SVGID_00000044886220001430888130000014575734010747730366_);}
	.st11{fill:url(#SVGID_00000023269745921539816750000013091690045061792644_);}
	.st12{fill:url(#SVGID_00000083806145152417113040000012764865746148360373_);}
	.st13{fill:url(#SVGID_00000039119052292187110580000009929985478567199637_);}
	.st14{fill:url(#SVGID_00000090266709904077259110000010346874726172667301_);}
	.st15{fill:url(#SVGID_00000137115573868411961260000009453482430071501219_);}
	.st16{fill:url(#SVGID_00000028320872320470026630000000927806515271044766_);}
	.st17{fill:url(#SVGID_00000010304503952672512340000017272888563568253323_);}
	.st18{fill:url(#SVGID_00000103259375821707970530000015586921183314074796_);}
	.st19{fill:url(#SVGID_00000000901031822157581550000006507180796901835704_);}
	.st20{fill:url(#SVGID_00000172400353664227601070000005210038477182586757_);}
	.st21{fill:url(#SVGID_00000150795298442257636960000017250171706153756854_);}
	.st22{fill:url(#SVGID_00000099632457470265493980000017206347612993652655_);}
	.st23{fill:url(#SVGID_00000173866657254419275140000015198237423911716258_);}
	.st24{fill:url(#SVGID_00000045583389912362846580000009547581359187295138_);}
	.st25{fill:url(#SVGID_00000015328258701795996350000000163897394533271196_);}
</style>
<g id="laurel_wreath">
	
		<linearGradient id="SVGID_1_" gradientUnits="userSpaceOnUse" x1="33.6988" y1="20.7522" x2="4.2298" y2="64.5044" gradientTransform="matrix(1 0 0 -1 0 72)">
		<stop  offset="0" style="stop-color:#38BDF8"/>
		<stop  offset="1" style="stop-color:#6366F1;stop-opacity:0.5"/>
	</linearGradient>
	<path class="st0" d="M34,65.2C20.5,66.1,8.3,55.9,5.2,40.7C3.6,33.1,4.6,25,7.9,18.2c3.2-6.5,8.7-11.4,14.7-14.1
		c1.1-0.5,2.2-1,3.3-1.3c0.4-0.1,0.7-0.5,0.3-0.3C20.3,4.4,14.5,7.7,10.3,13c-4.1,5.2-6.2,12-6.6,19c-0.6,14.1,7.1,27.3,18.5,32.2
		C26,65.7,30,66.3,34,66V65.2L34,65.2L34,65.2z"/>
	<g>
		<g>
			
				<linearGradient id="SVGID_00000142169213472887039990000004386700264401553853_" gradientUnits="userSpaceOnUse" x1="20.6547" y1="11.9664" x2="-8.8143" y2="55.7186" gradientTransform="matrix(1 0 0 -1 0 72)">
				<stop  offset="0" style="stop-color:#38BDF8"/>
				<stop  offset="1" style="stop-color:#6366F1;stop-opacity:0.5"/>
			</linearGradient>
			<path style="fill:url(#SVGID_00000142169213472887039990000004386700264401553853_);" d="M19.8,69.1c0,0,0.2,0,0.5,0.1
				c0.4,0.1,0.9,0.1,1.4,0.2c0.6,0.1,1.3,0.1,2,0.1s1.5,0,2.3-0.2c0.8-0.1,1.5-0.3,2.2-0.5s1.3-0.5,1.8-0.8c1-0.7,1.6-1.4,1.5-2.2
				c-1.9,0.2-3.5,0.3-4.9,0.6c-0.4,0.1-0.7,0.2-1,0.2c-0.3,0.1-0.6,0.2-1,0.2c-0.6,0.2-1.2,0.3-1.7,0.5s-1,0.4-1.4,0.5
				c-0.4,0.2-0.7,0.3-1,0.5C20.1,68.9,19.8,69.1,19.8,69.1L19.8,69.1z"/>
			
				<linearGradient id="SVGID_00000124128281954492640040000012858428942950244787_" gradientUnits="userSpaceOnUse" x1="17.2384" y1="9.6654" x2="-12.2306" y2="53.4176" gradientTransform="matrix(1 0 0 -1 0 72)">
				<stop  offset="0" style="stop-color:#38BDF8"/>
				<stop  offset="1" style="stop-color:#6366F1;stop-opacity:0.5"/>
			</linearGradient>
			<path style="fill:url(#SVGID_00000124128281954492640040000012858428942950244787_);" d="M13.3,64.9c0,0,0.2,0.1,0.5,0.2
				s0.7,0.3,1.3,0.6c0.5,0.2,1.2,0.4,1.8,0.6c0.3,0.1,0.7,0.2,1,0.3c0.4,0.1,0.7,0.1,1.1,0.2s0.7,0.1,1.1,0.1s0.7,0,1,0
				c0.7,0,1.3-0.1,1.8-0.3s1-0.4,1.3-0.6c0.3-0.3,0.5-0.6,0.5-1c-1.8-0.4-3.3-0.6-4.7-0.7c-0.7-0.1-1.3-0.1-1.9-0.1
				c-0.3,0-0.6,0-0.9,0s-0.5,0-0.8,0c-1,0.1-1.8,0.2-2.4,0.3S13.3,64.9,13.3,64.9L13.3,64.9z"/>
			
				<linearGradient id="SVGID_00000134248365884988983270000007138663585400569520_" gradientUnits="userSpaceOnUse" x1="15.1833" y1="8.2812" x2="-14.2857" y2="52.0334" gradientTransform="matrix(1 0 0 -1 0 72)">
				<stop  offset="0" style="stop-color:#38BDF8"/>
				<stop  offset="1" style="stop-color:#6366F1;stop-opacity:0.5"/>
			</linearGradient>
			<path style="fill:url(#SVGID_00000134248365884988983270000007138663585400569520_);" d="M7.9,59.2c0,0,0.1,0.1,0.4,0.3
				c0.2,0.2,0.6,0.5,1.1,0.8c0.4,0.3,1,0.7,1.6,1s1.2,0.7,1.9,1c0.3,0.2,0.6,0.3,1,0.4c0.3,0.1,0.6,0.2,0.9,0.3
				c0.6,0.1,1.2,0.2,1.7,0.2s1-0.1,1.3-0.2c0.3-0.2,0.6-0.4,0.6-0.8c-1.5-0.8-2.9-1.4-4.2-1.9c-1.2-0.5-2.3-0.7-3.3-0.9
				c-0.5-0.1-0.9-0.2-1.3-0.2c-0.4,0-0.7-0.1-1-0.1C8.2,59.2,7.9,59.2,7.9,59.2L7.9,59.2z"/>
			
				<linearGradient id="SVGID_00000171721413079400264800000003003710634958477457_" gradientUnits="userSpaceOnUse" x1="14.496" y1="7.8183" x2="-14.973" y2="51.5705" gradientTransform="matrix(1 0 0 -1 0 72)">
				<stop  offset="0" style="stop-color:#38BDF8"/>
				<stop  offset="1" style="stop-color:#6366F1;stop-opacity:0.5"/>
			</linearGradient>
			<path style="fill:url(#SVGID_00000171721413079400264800000003003710634958477457_);" d="M3.8,52.3c0,0,0.1,0.2,0.3,0.4
				c0.2,0.3,0.5,0.6,0.8,1c0.2,0.2,0.4,0.4,0.6,0.7c0.2,0.2,0.4,0.4,0.7,0.7c0.5,0.5,1,0.9,1.5,1.3c0.6,0.4,1.1,0.8,1.6,1.1
				c0.6,0.3,1.1,0.5,1.6,0.7c1,0.3,1.7,0.2,2-0.4c-1.3-1.2-2.4-2.1-3.5-2.8c-0.5-0.4-1-0.7-1.5-1S7,53.5,6.6,53.3
				c-0.8-0.4-1.5-0.7-2-0.8C4,52.3,3.8,52.3,3.8,52.3L3.8,52.3z"/>
			
				<linearGradient id="SVGID_00000101085857667865798320000001618719058337156499_" gradientUnits="userSpaceOnUse" x1="15.0979" y1="8.2237" x2="-14.3711" y2="51.9759" gradientTransform="matrix(1 0 0 -1 0 72)">
				<stop  offset="0" style="stop-color:#38BDF8"/>
				<stop  offset="1" style="stop-color:#6366F1;stop-opacity:0.5"/>
			</linearGradient>
			<path style="fill:url(#SVGID_00000101085857667865798320000001618719058337156499_);" d="M1.1,44.5L1.1,44.5
				c0,0.2,0.1,0.3,0.1,0.4c0.1,0.3,0.3,0.7,0.6,1.1s0.6,1,0.9,1.5s0.8,1.1,1.2,1.6s0.9,1,1.3,1.4c0.4,0.4,0.9,0.8,1.3,1
				C7.3,52,8,52.1,8.4,51.7c-0.9-1.4-1.8-2.5-2.6-3.5c-0.4-0.5-0.8-0.9-1.2-1.3c-0.4-0.4-0.7-0.7-1.1-1c-0.7-0.6-1.3-1-1.7-1.2
				c-0.2-0.1-0.4-0.2-0.5-0.3C1.1,44.5,1.1,44.5,1.1,44.5L1.1,44.5z"/>
			
				<linearGradient id="SVGID_00000101071138212043522530000017319110633089727670_" gradientUnits="userSpaceOnUse" x1="17.0158" y1="9.5154" x2="-12.4532" y2="53.2677" gradientTransform="matrix(1 0 0 -1 0 72)">
				<stop  offset="0" style="stop-color:#38BDF8"/>
				<stop  offset="1" style="stop-color:#6366F1;stop-opacity:0.5"/>
			</linearGradient>
			<path style="fill:url(#SVGID_00000101071138212043522530000017319110633089727670_);" d="M0,36.2c0,0,0,0.2,0.1,0.5
				s0.2,0.7,0.3,1.2s0.3,1,0.5,1.6s0.5,1.2,0.8,1.8c0.6,1.2,1.2,2.2,1.9,2.9s1.3,1,1.7,0.6C5.1,44.4,5,44,4.8,43.6
				c-0.2-0.3-0.3-0.7-0.4-1c-0.3-0.6-0.6-1.2-0.9-1.8c-0.5-1-1.1-1.8-1.6-2.6c-0.3-0.3-0.5-0.7-0.7-0.9C1,37,0.8,36.8,0.6,36.7
				C0.2,36.4,0,36.2,0,36.2L0,36.2z"/>
			
				<linearGradient id="SVGID_00000147193829065730824500000015155779686073393036_" gradientUnits="userSpaceOnUse" x1="20.4693" y1="11.8415" x2="-8.9998" y2="55.5937" gradientTransform="matrix(1 0 0 -1 0 72)">
				<stop  offset="0" style="stop-color:#38BDF8"/>
				<stop  offset="1" style="stop-color:#6366F1;stop-opacity:0.5"/>
			</linearGradient>
			<path style="fill:url(#SVGID_00000147193829065730824500000015155779686073393036_);" d="M0.6,28c0,0,0,0.2,0,0.4
				c0,0.3,0,0.7,0.1,1.1c0,0.5,0.1,1,0.2,1.6c0,0.3,0.1,0.6,0.2,0.9s0.1,0.6,0.2,0.9c0.1,0.3,0.1,0.6,0.2,0.9
				c0.1,0.3,0.2,0.6,0.3,0.8c0.2,0.5,0.4,1,0.6,1.4c0.5,0.8,1,1.2,1.4,1c-0.4-3.1-1.2-5.2-1.9-6.8C1.6,29.5,1.2,29,1,28.6
				c-0.1-0.2-0.2-0.3-0.3-0.4C0.6,28,0.6,28,0.6,28L0.6,28z"/>
			
				<linearGradient id="SVGID_00000106864036249630676240000004470976102207454609_" gradientUnits="userSpaceOnUse" x1="25.0084" y1="14.8988" x2="-4.4607" y2="58.651" gradientTransform="matrix(1 0 0 -1 0 72)">
				<stop  offset="0" style="stop-color:#38BDF8"/>
				<stop  offset="1" style="stop-color:#6366F1;stop-opacity:0.5"/>
			</linearGradient>
			<path style="fill:url(#SVGID_00000106864036249630676240000004470976102207454609_);" d="M2.7,20.1c0,0-0.1,0.6-0.2,1.5
				c0,0.4-0.1,1-0.1,1.5s0,1.1,0,1.7c0,1.1,0.2,2.3,0.5,3.1c0.1,0.4,0.3,0.7,0.5,1c0.2,0.2,0.4,0.3,0.6,0.3c0-0.7,0.1-1.4,0.1-2
				s0-1.2-0.1-1.8c0-0.5-0.1-1-0.2-1.5c-0.1-0.5-0.1-0.9-0.2-1.3c-0.2-0.8-0.4-1.4-0.5-1.8C2.8,20.4,2.7,20.1,2.7,20.1L2.7,20.1z"/>
			
				<linearGradient id="SVGID_00000022519092542868658040000014026757089033599679_" gradientUnits="userSpaceOnUse" x1="30.2826" y1="18.4512" x2="0.8136" y2="62.2034" gradientTransform="matrix(1 0 0 -1 0 72)">
				<stop  offset="0" style="stop-color:#38BDF8"/>
				<stop  offset="1" style="stop-color:#6366F1;stop-opacity:0.5"/>
			</linearGradient>
			<path style="fill:url(#SVGID_00000022519092542868658040000014026757089033599679_);" d="M6.3,13.1c0,0-0.1,0.1-0.1,0.3
				C6.1,13.6,6,14,5.8,14.3c-0.1,0.4-0.3,0.8-0.4,1.3s-0.2,1-0.3,1.5c-0.1,0.5-0.2,1-0.2,1.5s0,1,0,1.4c0.1,0.8,0.3,1.4,0.7,1.5
				c0.8-2.5,1-4.5,1-6c0-0.7-0.1-1.3-0.2-1.7C6.4,13.3,6.3,13.1,6.3,13.1L6.3,13.1z"/>
			
				<linearGradient id="SVGID_00000178190263219313496360000010807579681641589633_" gradientUnits="userSpaceOnUse" x1="36.1263" y1="22.3872" x2="6.6573" y2="66.1394" gradientTransform="matrix(1 0 0 -1 0 72)">
				<stop  offset="0" style="stop-color:#38BDF8"/>
				<stop  offset="1" style="stop-color:#6366F1;stop-opacity:0.5"/>
			</linearGradient>
			<path style="fill:url(#SVGID_00000178190263219313496360000010807579681641589633_);" d="M11.1,7.2c0,0-0.1,0.1-0.2,0.3
				c-0.1,0.2-0.3,0.4-0.4,0.7c-0.4,0.6-0.8,1.5-1.1,2.3c-0.2,0.5-0.4,1-0.5,1.4s-0.2,0.9-0.2,1.2c-0.1,0.7,0,1.3,0.4,1.5
				c1.1-2.1,1.7-3.8,1.9-5.2c0.1-0.7,0.2-1.2,0.2-1.6C11.1,7.4,11.1,7.2,11.1,7.2L11.1,7.2z"/>
			
				<linearGradient id="SVGID_00000062176565788540805240000001076110195882017184_" gradientUnits="userSpaceOnUse" x1="42.1629" y1="26.4531" x2="12.6939" y2="70.2053" gradientTransform="matrix(1 0 0 -1 0 72)">
				<stop  offset="0" style="stop-color:#38BDF8"/>
				<stop  offset="1" style="stop-color:#6366F1;stop-opacity:0.5"/>
			</linearGradient>
			<path style="fill:url(#SVGID_00000062176565788540805240000001076110195882017184_);" d="M16.9,2.8c0,0-0.3,0.3-0.7,0.8
				C16,3.8,15.7,4,15.5,4.3s-0.5,0.6-0.7,1S14.4,6,14.2,6.4c-0.2,0.3-0.3,0.7-0.4,1c-0.2,0.6-0.2,1.1,0.1,1.4c1.4-1.6,2.2-3,2.7-4.1
				C16.8,3.6,16.9,2.8,16.9,2.8z"/>
			
				<linearGradient id="SVGID_00000141452546931817302200000007509115028814643606_" gradientUnits="userSpaceOnUse" x1="47.9732" y1="30.3666" x2="18.5042" y2="74.1188" gradientTransform="matrix(1 0 0 -1 0 72)">
				<stop  offset="0" style="stop-color:#38BDF8"/>
				<stop  offset="1" style="stop-color:#6366F1;stop-opacity:0.5"/>
			</linearGradient>
			<path style="fill:url(#SVGID_00000141452546931817302200000007509115028814643606_);" d="M23.4,0c0,0-0.3,0.2-0.8,0.5
				s-1,0.7-1.6,1.2c-0.3,0.2-0.5,0.5-0.8,0.8C20,2.8,19.8,3,19.7,3.3c-0.3,0.5-0.4,1-0.2,1.2c0.4-0.2,0.7-0.5,1.1-0.8
				c0.3-0.2,0.6-0.5,0.9-0.8s0.5-0.5,0.7-0.8s0.4-0.5,0.5-0.7c0.3-0.5,0.5-0.8,0.6-1.1C23.3,0.2,23.4,0,23.4,0L23.4,0z"/>
		</g>
		<g>
			
				<linearGradient id="SVGID_00000088838698552256949420000018161668132152862132_" gradientUnits="userSpaceOnUse" x1="24.4988" y1="14.5556" x2="-4.9702" y2="58.3078" gradientTransform="matrix(1 0 0 -1 0 72)">
				<stop  offset="0" style="stop-color:#38BDF8"/>
				<stop  offset="1" style="stop-color:#6366F1;stop-opacity:0.5"/>
			</linearGradient>
			<path style="fill:url(#SVGID_00000088838698552256949420000018161668132152862132_);" d="M23.6,57.7c0,0,0.1,0.1,0.3,0.3
				c0.2,0.2,0.5,0.4,0.8,0.7c0.4,0.3,0.8,0.6,1.2,1c0.5,0.3,1,0.7,1.5,1.1c0.5,0.4,1,0.7,1.5,1.1c0.5,0.4,1,0.7,1.4,1.1
				c0.8,0.7,1.4,1.5,1.2,2.2c-1.8-0.2-3.3-0.8-4.4-1.6c-0.3-0.2-0.5-0.4-0.8-0.6c-0.2-0.2-0.5-0.4-0.7-0.7c-0.4-0.4-0.7-0.9-1-1.3
				c-0.3-0.4-0.5-0.9-0.6-1.2s-0.2-0.7-0.3-1C23.6,58.1,23.6,57.7,23.6,57.7L23.6,57.7z"/>
			
				<linearGradient id="SVGID_00000097482177404581550550000000379199877672152981_" gradientUnits="userSpaceOnUse" x1="21.3682" y1="12.447" x2="-8.1008" y2="56.1992" gradientTransform="matrix(1 0 0 -1 0 72)">
				<stop  offset="0" style="stop-color:#38BDF8"/>
				<stop  offset="1" style="stop-color:#6366F1;stop-opacity:0.5"/>
			</linearGradient>
			<path style="fill:url(#SVGID_00000097482177404581550550000000379199877672152981_);" d="M19,55.2c0,0,0.4,0.5,0.9,1.2
				c0.3,0.3,0.6,0.8,1,1.2c0.2,0.2,0.4,0.4,0.6,0.7c0.2,0.2,0.4,0.5,0.6,0.7s0.4,0.5,0.6,0.7s0.4,0.5,0.6,0.7
				c0.4,0.5,0.8,0.9,1.1,1.4c0.3,0.4,0.5,0.9,0.7,1.3c0.1,0.4,0.2,0.8,0,1.1c-1.7-0.6-2.9-1.6-3.8-2.6c-0.4-0.5-0.8-1-1.1-1.6
				c-0.1-0.3-0.3-0.5-0.4-0.8c-0.1-0.2-0.2-0.5-0.3-0.7c-0.3-0.9-0.4-1.8-0.5-2.3C19,55.6,19,55.3,19,55.2L19,55.2z"/>
			
				<linearGradient id="SVGID_00000079469273828851036070000010033561448751111053_" gradientUnits="userSpaceOnUse" x1="19.4984" y1="11.1876" x2="-9.9706" y2="54.9398" gradientTransform="matrix(1 0 0 -1 0 72)">
				<stop  offset="0" style="stop-color:#38BDF8"/>
				<stop  offset="1" style="stop-color:#6366F1;stop-opacity:0.5"/>
			</linearGradient>
			<path style="fill:url(#SVGID_00000079469273828851036070000010033561448751111053_);" d="M15,51.6c0,0,0.1,0.1,0.2,0.3
				c0.1,0.2,0.2,0.6,0.4,1s0.4,0.9,0.7,1.3c0.2,0.5,0.5,1,0.8,1.6c0.1,0.3,0.3,0.5,0.4,0.8s0.3,0.5,0.4,0.8c0.3,0.5,0.5,1.1,0.7,1.5
				c0.2,0.5,0.3,0.9,0.4,1.3c0,0.4,0,0.8-0.2,1c-1.4-1-2.4-2.3-3-3.4c-0.6-1.2-0.9-2.3-1-3.3c-0.1-0.5-0.1-0.9-0.1-1.3
				s0.1-0.7,0.1-1C14.9,51.9,15,51.6,15,51.6L15,51.6z"/>
			
				<linearGradient id="SVGID_00000171709574120368170860000001974620425307637889_" gradientUnits="userSpaceOnUse" x1="18.8692" y1="10.7638" x2="-10.5999" y2="54.516" gradientTransform="matrix(1 0 0 -1 0 72)">
				<stop  offset="0" style="stop-color:#38BDF8"/>
				<stop  offset="1" style="stop-color:#6366F1;stop-opacity:0.5"/>
			</linearGradient>
			<path style="fill:url(#SVGID_00000171709574120368170860000001974620425307637889_);" d="M11.8,46.9c0,0,0,0.1,0.1,0.4
				c0.1,0.2,0.1,0.6,0.2,1c0.1,0.2,0.1,0.4,0.2,0.7c0.1,0.2,0.1,0.5,0.2,0.8c0.1,0.5,0.3,1.1,0.4,1.7c0.2,0.6,0.3,1.2,0.5,1.7
				s0.3,1.1,0.4,1.6c0.2,1,0.1,1.8-0.3,2.2c-1.1-1.3-1.7-2.7-2.1-3.9c-0.2-0.6-0.3-1.2-0.3-1.8s-0.1-1.1,0-1.5
				c0.1-0.9,0.2-1.6,0.4-2.1C11.6,47.2,11.8,46.9,11.8,46.9L11.8,46.9z"/>
			
				<linearGradient id="SVGID_00000053529144374069671680000008286811171772859802_" gradientUnits="userSpaceOnUse" x1="19.1606" y1="10.9601" x2="-10.3084" y2="54.7123" gradientTransform="matrix(1 0 0 -1 0 72)">
				<stop  offset="0" style="stop-color:#38BDF8"/>
				<stop  offset="1" style="stop-color:#6366F1;stop-opacity:0.5"/>
			</linearGradient>
			<path style="fill:url(#SVGID_00000053529144374069671680000008286811171772859802_);" d="M9.5,41.5L9.5,41.5c0,0.2,0,0.3,0,0.4
				c0,0.2,0,0.6,0,1s0.1,0.9,0.1,1.4s0.1,1.1,0.1,1.7c0.1,0.6,0.1,1.2,0.1,1.7s0,1.1,0,1.6c0,1-0.2,1.7-0.7,2
				c-0.7-1.6-1-3.1-1.1-4.3c0-0.6,0-1.2,0-1.7c0.1-0.5,0.2-1,0.3-1.4c0.2-0.8,0.6-1.4,0.8-1.8C9.2,41.9,9.3,41.8,9.5,41.5L9.5,41.5
				L9.5,41.5z"/>
			
				<linearGradient id="SVGID_00000030479823197076999330000004283540367369372804_" gradientUnits="userSpaceOnUse" x1="20.7734" y1="12.0463" x2="-8.6957" y2="55.7985" gradientTransform="matrix(1 0 0 -1 0 72)">
				<stop  offset="0" style="stop-color:#38BDF8"/>
				<stop  offset="1" style="stop-color:#6366F1;stop-opacity:0.5"/>
			</linearGradient>
			<path style="fill:url(#SVGID_00000030479823197076999330000004283540367369372804_);" d="M8.4,35.6c0,0-0.1,0.5-0.2,1.3
				c-0.1,0.4-0.1,0.8-0.2,1.3c-0.1,0.5-0.1,1-0.2,1.5c-0.2,1.1-0.3,2.2-0.5,3c-0.2,0.9-0.5,1.5-1.1,1.6C6.1,44,6.1,43.6,6,43.2
				c-0.1-0.4-0.1-0.7-0.1-1.1c-0.1-0.7,0-1.3,0.1-1.9c0.2-1.2,0.5-2.1,0.9-2.8c0.2-0.3,0.4-0.6,0.6-0.9C7.7,36.3,7.9,36,8,35.9
				C8.2,35.7,8.4,35.6,8.4,35.6L8.4,35.6z"/>
			
				<linearGradient id="SVGID_00000077298839693877422460000006326930513553452176_" gradientUnits="userSpaceOnUse" x1="23.3962" y1="13.8129" x2="-6.0728" y2="57.5651" gradientTransform="matrix(1 0 0 -1 0 72)">
				<stop  offset="0" style="stop-color:#38BDF8"/>
				<stop  offset="1" style="stop-color:#6366F1;stop-opacity:0.5"/>
			</linearGradient>
			<path style="fill:url(#SVGID_00000077298839693877422460000006326930513553452176_);" d="M8.4,29.5c0,0-0.1,0.1-0.1,0.3
				C8.2,30,8.1,30.3,8,30.6c-0.1,0.3-0.3,0.7-0.4,1.2c-0.1,0.2-0.2,0.4-0.2,0.7c-0.1,0.2-0.2,0.5-0.2,0.7c-0.2,0.5-0.3,0.9-0.5,1.4
				s-0.4,0.9-0.6,1.2C5.7,36.5,5.3,37,4.8,37c0-0.8,0-1.4,0.1-2.1C5,34.5,5,34.2,5.1,34c0.1-0.3,0.2-0.5,0.2-0.8
				c0.3-1,0.8-1.8,1.3-2.3s0.9-0.9,1.2-1.1c0.2-0.1,0.3-0.2,0.4-0.2C8.4,29.5,8.4,29.5,8.4,29.5L8.4,29.5z"/>
			
				<linearGradient id="SVGID_00000090275347399405877480000003550369170126939535_" gradientUnits="userSpaceOnUse" x1="27.0551" y1="16.2774" x2="-2.4139" y2="60.0296" gradientTransform="matrix(1 0 0 -1 0 72)">
				<stop  offset="0" style="stop-color:#38BDF8"/>
				<stop  offset="1" style="stop-color:#6366F1;stop-opacity:0.5"/>
			</linearGradient>
			<path style="fill:url(#SVGID_00000090275347399405877480000003550369170126939535_);" d="M9.7,23.5c0,0-0.2,0.4-0.6,0.9
				c-0.2,0.3-0.4,0.6-0.6,1c-0.2,0.4-0.4,0.7-0.7,1.1c-0.5,0.8-1,1.6-1.5,2.1c-0.2,0.3-0.5,0.5-0.7,0.6s-0.4,0.2-0.7,0.1
				C5,28.6,5.2,28,5.4,27.5s0.5-1,0.7-1.4c0.3-0.4,0.5-0.8,0.8-1c0.3-0.3,0.6-0.5,0.8-0.7c0.5-0.4,1-0.6,1.3-0.7
				C9.5,23.5,9.7,23.4,9.7,23.5L9.7,23.5z"/>
			
				<linearGradient id="SVGID_00000033369615206439492410000000564639296545177517_" gradientUnits="userSpaceOnUse" x1="31.4273" y1="19.2222" x2="1.9583" y2="62.9744" gradientTransform="matrix(1 0 0 -1 0 72)">
				<stop  offset="0" style="stop-color:#38BDF8"/>
				<stop  offset="1" style="stop-color:#6366F1;stop-opacity:0.5"/>
			</linearGradient>
			<path style="fill:url(#SVGID_00000033369615206439492410000000564639296545177517_);" d="M12.1,17.9c0,0-1.1,1-2.3,2.3
				c-0.3,0.3-0.6,0.6-0.9,0.9S8.3,21.6,8,21.8c-0.6,0.4-1,0.6-1.4,0.3c0.2-0.6,0.5-1.1,0.8-1.5s0.6-0.8,0.9-1.1
				c0.6-0.6,1.2-1,1.8-1.2c0.5-0.2,1-0.3,1.3-0.3S12.1,17.9,12.1,17.9L12.1,17.9z"/>
			
				<linearGradient id="SVGID_00000116930966450740094500000006703497356497647748_" gradientUnits="userSpaceOnUse" x1="36.5112" y1="22.6464" x2="7.0421" y2="66.3986" gradientTransform="matrix(1 0 0 -1 0 72)">
				<stop  offset="0" style="stop-color:#38BDF8"/>
				<stop  offset="1" style="stop-color:#6366F1;stop-opacity:0.5"/>
			</linearGradient>
			<path style="fill:url(#SVGID_00000116930966450740094500000006703497356497647748_);" d="M15.6,13c0,0-0.1,0-0.2,0.1
				s-0.3,0.2-0.6,0.3c-0.5,0.3-1.1,0.7-1.7,1c-0.3,0.2-0.6,0.4-0.9,0.5s-0.6,0.3-0.9,0.4c-0.3,0.1-0.6,0.2-0.8,0.2s-0.4-0.1-0.5-0.2
				c1.4-1.8,2.9-2.4,3.9-2.6c0.5-0.1,1,0,1.2,0C15.4,12.9,15.6,13,15.6,13L15.6,13z"/>
			
				<linearGradient id="SVGID_00000085224875490126729570000009604478315093543088_" gradientUnits="userSpaceOnUse" x1="41.6761" y1="26.1253" x2="12.2071" y2="69.8775" gradientTransform="matrix(1 0 0 -1 0 72)">
				<stop  offset="0" style="stop-color:#38BDF8"/>
				<stop  offset="1" style="stop-color:#6366F1;stop-opacity:0.5"/>
			</linearGradient>
			<path style="fill:url(#SVGID_00000085224875490126729570000009604478315093543088_);" d="M19.9,9.1c0,0-0.3,0.1-0.8,0.2
				c-0.2,0.1-0.5,0.1-0.8,0.2s-0.6,0.2-0.9,0.3s-0.6,0.2-1,0.2c-0.3,0.1-0.6,0.1-0.9,0.2c-0.5,0-1-0.1-1.1-0.4
				c1.5-1.3,3-1.4,3.9-1.3C19.4,8.8,19.9,9.2,19.9,9.1L19.9,9.1z"/>
			
				<linearGradient id="SVGID_00000111896981883649709180000017296133106466037146_" gradientUnits="userSpaceOnUse" x1="46.9014" y1="29.6447" x2="17.4324" y2="73.3969" gradientTransform="matrix(1 0 0 -1 0 72)">
				<stop  offset="0" style="stop-color:#38BDF8"/>
				<stop  offset="1" style="stop-color:#6366F1;stop-opacity:0.5"/>
			</linearGradient>
			<path style="fill:url(#SVGID_00000111896981883649709180000017296133106466037146_);" d="M25,6.5c0,0-0.3,0-0.7,0
				c-0.2,0-0.5,0-0.7,0c-0.3,0-0.6,0-0.9,0s-0.6,0-0.9,0s-0.6,0-0.8-0.1c-0.5-0.1-0.9-0.3-0.9-0.6c0.4-0.2,0.8-0.3,1.1-0.4
				c0.4-0.1,0.7-0.1,1-0.1s0.6,0,0.9,0.1s0.5,0.1,0.7,0.2c0.4,0.2,0.7,0.4,0.9,0.6S25,6.5,25,6.5L25,6.5z"/>
		</g>
		
			<linearGradient id="SVGID_00000039117159754774920210000008298557711407722393_" gradientUnits="userSpaceOnUse" x1="51.733" y1="32.899" x2="22.2639" y2="76.6512" gradientTransform="matrix(1 0 0 -1 0 72)">
			<stop  offset="0" style="stop-color:#38BDF8"/>
			<stop  offset="1" style="stop-color:#6366F1;stop-opacity:0.5"/>
		</linearGradient>
		<path style="fill:url(#SVGID_00000039117159754774920210000008298557711407722393_);" d="M31.6,2.1c0,0-0.4-0.1-1.1-0.1
			c-0.3,0-0.7,0-1.1-0.1c-0.2,0-0.4,0-0.7,0c-0.2,0-0.5,0-0.7,0S27.5,2,27.3,2s-0.5,0.1-0.7,0.1c-0.5,0.1-1,0.2-1.4,0.4
			C24.7,2.6,24.3,2.8,24,3c-0.2,0.1-0.3,0.2-0.5,0.3c-0.1,0.1-0.3,0.2-0.4,0.4c0.3,0,0.7,0,1.1,0s0.8-0.1,1.3-0.2
			c0.2,0,0.5-0.1,0.7-0.2c0.2,0,0.5-0.1,0.7-0.2c0.1,0.1,0.3,0,0.6-0.1c0.2,0,0.5-0.1,0.7-0.2c0.2-0.1,0.5-0.1,0.7-0.2
			c0.2,0,0.4-0.1,0.6-0.1c0.4-0.1,0.8-0.2,1.1-0.2C31.2,2.2,31.6,2.1,31.6,2.1L31.6,2.1z"/>
	</g>
</g>
</svg>
