<?xml version="1.0" encoding="utf-8"?>
<!-- Generator: Adobe Illustrator 26.4.1, SVG Export Plug-In . SVG Version: 6.00 Build 0)  -->
<svg version="1.1" id="_图层_2" xmlns="http://www.w3.org/2000/svg" xmlns:xlink="http://www.w3.org/1999/xlink" x="0px" y="0px"
	 viewBox="0 0 34 69.6" style="enable-background:new 0 0 34 69.6;" xml:space="preserve">
<style type="text/css">
	.st0{fill:url(#SVGID_1_);}
	.st1{fill:url(#SVGID_00000159430588808140695150000006060363233277227184_);}
	.st2{fill:url(#SVGID_00000152235737165704046380000008858298898586058374_);}
	.st3{fill:url(#SVGID_00000039812773986341469070000003650038981832825493_);}
	.st4{fill:url(#SVGID_00000051350096719911742320000007761660188576479909_);}
	.st5{fill:url(#SVGID_00000061468375786261320870000011614414357364833693_);}
	.st6{fill:url(#SVGID_00000068641051351207178040000003922147580728352436_);}
	.st7{fill:url(#SVGID_00000020383365779240023680000018429414871764453055_);}
	.st8{fill:url(#SVGID_00000065762577684157872970000015681308461811504032_);}
	.st9{fill:url(#SVGID_00000154404097228109233190000010418280586860542896_);}
	.st10{fill:url(#SVGID_00000063618429298709536450000005880203239441457543_);}
	.st11{fill:url(#SVGID_00000034792228747040110210000018115170633134239408_);}
	.st12{fill:url(#SVGID_00000145017706001064993030000010961848122404735394_);}
	.st13{fill:url(#SVGID_00000173857587917793580520000011641837146993197990_);}
	.st14{fill:url(#SVGID_00000165955525755569533900000017924772392568791979_);}
	.st15{fill:url(#SVGID_00000008107060546962779770000000369958666142118804_);}
	.st16{fill:url(#SVGID_00000171696595303321839250000001686328023957579664_);}
	.st17{fill:url(#SVGID_00000023282955072544992710000005740935589592381354_);}
	.st18{fill:url(#SVGID_00000172437939494451455460000015271586128176904126_);}
	.st19{fill:url(#SVGID_00000170246421339355033170000016327494672629798298_);}
	.st20{fill:url(#SVGID_00000168093713436500049960000001714355420137505207_);}
	.st21{fill:url(#SVGID_00000148636416517985050720000002773213154890657937_);}
	.st22{fill:url(#SVGID_00000179612001757171272790000015007232202648255928_);}
	.st23{fill:url(#SVGID_00000065780003894519067350000006410519648334791610_);}
	.st24{fill:url(#SVGID_00000042005664109076941480000004615718845768400315_);}
	.st25{fill:url(#SVGID_00000176035550387456523630000015031548344785587878_);}
</style>
<g id="laurel_wreath">
	<g>
		
			<linearGradient id="SVGID_1_" gradientUnits="userSpaceOnUse" x1="3.1226" y1="18.2259" x2="15.7067" y2="43.2348" gradientTransform="matrix(1 0 0 -1 0 72)">
			<stop  offset="0" style="stop-color:#38BDF8"/>
			<stop  offset="1" style="stop-color:#6366F1;stop-opacity:0.5"/>
		</linearGradient>
		<path class="st0" d="M0,65.2c13.5,0.9,25.7-9.3,28.8-24.5c1.5-7.5,0.6-15.7-2.7-22.4c-3.2-6.5-8.7-11.4-14.7-14.1
			c-1.1-0.5-2.2-1-3.3-1.3C7.6,2.7,7.3,2.4,7.8,2.5C13.7,4.4,19.6,7.7,23.7,13c4.1,5.2,6.2,12,6.6,19c0.6,14.1-7.1,27.3-18.5,32.2
			C8,65.7,4,66.3,0,66V65.2L0,65.2L0,65.2z"/>
		<g>
			
				<linearGradient id="SVGID_00000121256910778100542250000003199144818338008721_" gradientUnits="userSpaceOnUse" x1="12.7851" y1="13.364" x2="25.3692" y2="38.3728" gradientTransform="matrix(1 0 0 -1 0 72)">
				<stop  offset="0" style="stop-color:#38BDF8"/>
				<stop  offset="1" style="stop-color:#6366F1;stop-opacity:0.5"/>
			</linearGradient>
			<path style="fill:url(#SVGID_00000121256910778100542250000003199144818338008721_);" d="M14.2,69.1c0,0-0.2,0-0.5,0.1
				c-0.4,0.1-0.8,0.1-1.4,0.2s-1.3,0.1-2,0.1s-1.5,0-2.3-0.2c-0.8-0.1-1.5-0.3-2.2-0.5S4.5,68.3,4,68c-1-0.7-1.6-1.4-1.5-2.2
				C4.4,66,6,66.1,7.4,66.4c0.3,0.1,0.7,0.2,1,0.2C8.7,66.9,9,67,9.3,67.1c0.6,0.2,1.2,0.3,1.7,0.5s1,0.4,1.4,0.5s0.7,0.3,1,0.5
				C13.9,68.9,14.2,69.1,14.2,69.1L14.2,69.1z"/>
			
				<linearGradient id="SVGID_00000101803127544928462790000016114045890646226060_" gradientUnits="userSpaceOnUse" x1="17.0877" y1="11.1989" x2="29.6718" y2="36.2078" gradientTransform="matrix(1 0 0 -1 0 72)">
				<stop  offset="0" style="stop-color:#38BDF8"/>
				<stop  offset="1" style="stop-color:#6366F1;stop-opacity:0.5"/>
			</linearGradient>
			<path style="fill:url(#SVGID_00000101803127544928462790000016114045890646226060_);" d="M20.7,64.9c0,0-0.2,0.1-0.5,0.2
				s-0.7,0.3-1.3,0.6c-0.5,0.2-1.1,0.4-1.8,0.6c-0.3,0.1-0.7,0.2-1,0.3c-0.4,0.1-0.7,0.1-1.1,0.2c-0.4,0.1-0.7,0.1-1.1,0.1
				c-0.4,0-0.7,0-1,0c-0.7,0-1.3-0.1-1.8-0.3s-1-0.4-1.3-0.6c-0.3-0.3-0.5-0.6-0.5-1c1.8-0.4,3.3-0.6,4.7-0.7
				c0.7-0.1,1.3-0.1,1.9-0.1c0.3,0,0.6,0,0.9,0c0.3,0,0.5,0,0.8,0c1,0.1,1.8,0.2,2.4,0.3S20.7,64.9,20.7,64.9L20.7,64.9z"/>
			
				<linearGradient id="SVGID_00000157268079597462413550000006405923420224924555_" gradientUnits="userSpaceOnUse" x1="20.0094" y1="9.7288" x2="32.5935" y2="34.7376" gradientTransform="matrix(1 0 0 -1 0 72)">
				<stop  offset="0" style="stop-color:#38BDF8"/>
				<stop  offset="1" style="stop-color:#6366F1;stop-opacity:0.5"/>
			</linearGradient>
			<path style="fill:url(#SVGID_00000157268079597462413550000006405923420224924555_);" d="M26.1,59.2c0,0-0.1,0.1-0.4,0.3
				c-0.2,0.2-0.6,0.5-1.1,0.8s-1,0.7-1.6,1s-1.2,0.7-1.9,1c-0.3,0.2-0.6,0.3-1,0.4c-0.3,0.1-0.6,0.2-1,0.3c-0.6,0.1-1.2,0.2-1.7,0.2
				s-1-0.1-1.3-0.2s-0.6-0.4-0.6-0.8c1.5-0.8,2.9-1.4,4.2-1.9c1.2-0.5,2.3-0.7,3.3-0.9c0.5-0.1,0.9-0.2,1.3-0.2s0.7-0.1,1-0.1
				C25.8,59.2,26.1,59.2,26.1,59.2L26.1,59.2z"/>
			
				<linearGradient id="SVGID_00000049194287660764187020000005453888275313150641_" gradientUnits="userSpaceOnUse" x1="21.7306" y1="8.8627" x2="34.3147" y2="33.8715" gradientTransform="matrix(1 0 0 -1 0 72)">
				<stop  offset="0" style="stop-color:#38BDF8"/>
				<stop  offset="1" style="stop-color:#6366F1;stop-opacity:0.5"/>
			</linearGradient>
			<path style="fill:url(#SVGID_00000049194287660764187020000005453888275313150641_);" d="M30.3,52.3c0,0-0.1,0.2-0.3,0.4
				c-0.2,0.3-0.5,0.6-0.8,1c-0.2,0.2-0.4,0.4-0.6,0.7c-0.2,0.2-0.4,0.4-0.7,0.7c-0.5,0.5-1,0.9-1.5,1.3c-0.5,0.4-1.1,0.8-1.6,1.1
				s-1.1,0.5-1.5,0.7c-1,0.3-1.7,0.2-2-0.4c1.3-1.2,2.4-2.1,3.5-2.8c0.5-0.4,1-0.7,1.5-1s0.9-0.5,1.3-0.7c0.8-0.4,1.5-0.7,2-0.8
				C30,52.3,30.3,52.3,30.3,52.3L30.3,52.3z"/>
			
				<linearGradient id="SVGID_00000097481451891548671340000004198769027281282973_" gradientUnits="userSpaceOnUse" x1="21.7162" y1="8.8699" x2="34.3003" y2="33.8787" gradientTransform="matrix(1 0 0 -1 0 72)">
				<stop  offset="0" style="stop-color:#38BDF8"/>
				<stop  offset="1" style="stop-color:#6366F1;stop-opacity:0.5"/>
			</linearGradient>
			<path style="fill:url(#SVGID_00000097481451891548671340000004198769027281282973_);" d="M32.9,44.5L32.9,44.5
				c0,0.2-0.1,0.3-0.2,0.4c-0.1,0.3-0.3,0.7-0.6,1.1c-0.2,0.5-0.6,1-0.9,1.5s-0.8,1.1-1.1,1.6c-0.4,0.5-0.9,1-1.3,1.4
				c-0.5,0.4-0.9,0.8-1.3,1c-0.8,0.5-1.5,0.6-1.9,0.2c0.9-1.4,1.8-2.5,2.6-3.5c0.4-0.5,0.8-0.9,1.2-1.3c0.4-0.4,0.7-0.7,1.1-1
				c0.7-0.6,1.3-1,1.7-1.2c0.2-0.1,0.4-0.2,0.5-0.3C32.9,44.5,32.9,44.5,32.9,44.5L32.9,44.5z"/>
			
				<linearGradient id="SVGID_00000077319143878906292850000009694080311745007038_" gradientUnits="userSpaceOnUse" x1="20.6379" y1="9.4125" x2="33.222" y2="34.4214" gradientTransform="matrix(1 0 0 -1 0 72)">
				<stop  offset="0" style="stop-color:#38BDF8"/>
				<stop  offset="1" style="stop-color:#6366F1;stop-opacity:0.5"/>
			</linearGradient>
			<path style="fill:url(#SVGID_00000077319143878906292850000009694080311745007038_);" d="M34,36.2c0,0,0,0.2-0.1,0.5
				s-0.2,0.7-0.3,1.2s-0.3,1-0.5,1.6s-0.5,1.2-0.7,1.8c-0.6,1.2-1.2,2.2-1.9,2.9c-0.7,0.7-1.3,1-1.7,0.6c0.1-0.4,0.3-0.7,0.4-1.1
				s0.3-0.7,0.4-1c0.3-0.6,0.6-1.2,0.9-1.8c0.6-1.1,1.2-1.9,1.7-2.6c0.3-0.3,0.5-0.7,0.7-0.9c0.2-0.3,0.4-0.5,0.6-0.6
				C33.8,36.4,34,36.2,34,36.2L34,36.2z"/>
			
				<linearGradient id="SVGID_00000111908424873566941930000005444536763143178667_" gradientUnits="userSpaceOnUse" x1="17.8102" y1="10.8354" x2="30.3943" y2="35.8442" gradientTransform="matrix(1 0 0 -1 0 72)">
				<stop  offset="0" style="stop-color:#38BDF8"/>
				<stop  offset="1" style="stop-color:#6366F1;stop-opacity:0.5"/>
			</linearGradient>
			<path style="fill:url(#SVGID_00000111908424873566941930000005444536763143178667_);" d="M33.5,28c0,0,0,0.2,0,0.4
				c0,0.3,0,0.7-0.1,1.1c0,0.5-0.1,1-0.2,1.6c0,0.3-0.1,0.6-0.2,0.9c-0.1,0.3-0.1,0.6-0.2,0.9c-0.1,0.3-0.2,0.6-0.2,0.9
				c-0.1,0.3-0.2,0.6-0.3,0.8c-0.2,0.5-0.4,1-0.6,1.4c-0.5,0.8-1,1.2-1.4,1c0.4-3.1,1.1-5.2,1.9-6.8c0.3-0.8,0.7-1.3,0.9-1.7
				c0.1-0.2,0.2-0.3,0.3-0.4C33.4,28,33.4,28,33.5,28L33.5,28z"/>
			
				<linearGradient id="SVGID_00000179643756597125425160000009624931488754434955_" gradientUnits="userSpaceOnUse" x1="13.5769" y1="12.9655" x2="26.161" y2="37.9744" gradientTransform="matrix(1 0 0 -1 0 72)">
				<stop  offset="0" style="stop-color:#38BDF8"/>
				<stop  offset="1" style="stop-color:#6366F1;stop-opacity:0.5"/>
			</linearGradient>
			<path style="fill:url(#SVGID_00000179643756597125425160000009624931488754434955_);" d="M31.3,20.1c0,0,0.1,0.6,0.2,1.5
				c0,0.4,0.1,1,0.1,1.5s0,1.1,0,1.7c0,1.1-0.2,2.3-0.5,3.1c-0.1,0.4-0.3,0.7-0.5,1c-0.2,0.2-0.4,0.3-0.6,0.3c0-0.7-0.1-1.4-0.1-2
				s0-1.2,0.1-1.8c0-0.5,0.1-1,0.2-1.5s0.1-0.9,0.2-1.3c0.2-0.8,0.4-1.4,0.5-1.8C31.2,20.4,31.3,20.1,31.3,20.1L31.3,20.1z"/>
			
				<linearGradient id="SVGID_00000143606588666626781260000016766930674236714402_" gradientUnits="userSpaceOnUse" x1="8.4167" y1="15.562" x2="21.0008" y2="40.5709" gradientTransform="matrix(1 0 0 -1 0 72)">
				<stop  offset="0" style="stop-color:#38BDF8"/>
				<stop  offset="1" style="stop-color:#6366F1;stop-opacity:0.5"/>
			</linearGradient>
			<path style="fill:url(#SVGID_00000143606588666626781260000016766930674236714402_);" d="M27.7,13.1c0,0,0,0.1,0.1,0.3
				s0.2,0.5,0.3,0.9c0.1,0.4,0.3,0.8,0.4,1.3s0.2,1,0.3,1.5c0.1,0.5,0.1,1,0.2,1.5c0,0.5,0,1,0,1.4c-0.1,0.8-0.3,1.4-0.7,1.5
				c-0.7-2.5-0.9-4.6-0.9-6.1c0-0.7,0.1-1.3,0.2-1.7C27.6,13.3,27.7,13.1,27.7,13.1L27.7,13.1z"/>
			
				<linearGradient id="SVGID_00000021821828488725142560000002024601231145601978_" gradientUnits="userSpaceOnUse" x1="2.5237" y1="18.5273" x2="15.1078" y2="43.5361" gradientTransform="matrix(1 0 0 -1 0 72)">
				<stop  offset="0" style="stop-color:#38BDF8"/>
				<stop  offset="1" style="stop-color:#6366F1;stop-opacity:0.5"/>
			</linearGradient>
			<path style="fill:url(#SVGID_00000021821828488725142560000002024601231145601978_);" d="M22.9,7.2c0,0,0.1,0.1,0.2,0.3
				c0.1,0.2,0.3,0.4,0.4,0.7c0.4,0.6,0.8,1.5,1.1,2.3c0.2,0.4,0.3,0.9,0.5,1.3c0.1,0.4,0.2,0.9,0.2,1.2c0.1,0.7,0,1.3-0.4,1.5
				c-1.1-2.1-1.7-3.8-1.9-5.2c-0.1-0.7-0.2-1.2-0.2-1.6C22.9,7.4,22.9,7.2,22.9,7.2L22.9,7.2z"/>
			
				<linearGradient id="SVGID_00000168103734288397873540000012420000598868800922_" gradientUnits="userSpaceOnUse" x1="-3.7474" y1="21.6828" x2="8.8367" y2="46.6917" gradientTransform="matrix(1 0 0 -1 0 72)">
				<stop  offset="0" style="stop-color:#38BDF8"/>
				<stop  offset="1" style="stop-color:#6366F1;stop-opacity:0.5"/>
			</linearGradient>
			<path style="fill:url(#SVGID_00000168103734288397873540000012420000598868800922_);" d="M17.1,2.8c0,0,0.3,0.3,0.7,0.8
				C18,3.8,18.3,4,18.5,4.3s0.5,0.6,0.7,1s0.5,0.7,0.6,1.1c0.2,0.3,0.3,0.7,0.4,1c0.2,0.6,0.2,1.1,0,1.4c-1.4-1.6-2.2-3-2.7-4.1
				C17.2,3.6,17.1,2.8,17.1,2.8z"/>
			
				<linearGradient id="SVGID_00000150072218632697138810000002776174799665538965_" gradientUnits="userSpaceOnUse" x1="-10.0359" y1="24.8472" x2="2.5481" y2="49.856" gradientTransform="matrix(1 0 0 -1 0 72)">
				<stop  offset="0" style="stop-color:#38BDF8"/>
				<stop  offset="1" style="stop-color:#6366F1;stop-opacity:0.5"/>
			</linearGradient>
			<path style="fill:url(#SVGID_00000150072218632697138810000002776174799665538965_);" d="M10.6,0c0,0,0.3,0.2,0.8,0.5
				c0.4,0.3,1.1,0.7,1.6,1.2c0.3,0.2,0.5,0.5,0.8,0.8C14,2.8,14.2,3,14.3,3.3c0.3,0.5,0.4,1,0.2,1.2c-0.4-0.2-0.7-0.5-1.1-0.8
				c-0.3-0.2-0.6-0.5-0.9-0.8S12,2.4,11.8,2.1c-0.2-0.2-0.4-0.5-0.5-0.7c-0.3-0.5-0.5-0.8-0.6-1.1C10.7,0.2,10.6,0,10.6,0L10.6,0z"
				/>
		</g>
		<g>
			
				<linearGradient id="SVGID_00000040573463112532528750000016558671648253956243_" gradientUnits="userSpaceOnUse" x1="9.0028" y1="15.2671" x2="21.5869" y2="40.276" gradientTransform="matrix(1 0 0 -1 0 72)">
				<stop  offset="0" style="stop-color:#38BDF8"/>
				<stop  offset="1" style="stop-color:#6366F1;stop-opacity:0.5"/>
			</linearGradient>
			<path style="fill:url(#SVGID_00000040573463112532528750000016558671648253956243_);" d="M10.4,57.7c0,0-0.1,0.1-0.3,0.3
				s-0.5,0.4-0.8,0.7c-0.4,0.3-0.8,0.6-1.2,1c-0.5,0.3-0.9,0.7-1.5,1.1c-0.5,0.4-1,0.7-1.5,1.1c-0.5,0.4-1,0.7-1.4,1.1
				c-0.8,0.7-1.4,1.5-1.2,2.2c1.8-0.2,3.3-0.8,4.4-1.6c0.3-0.2,0.5-0.4,0.8-0.6c0.2-0.2,0.5-0.4,0.7-0.7c0.4-0.4,0.7-0.9,1-1.3
				c0.3-0.4,0.4-0.9,0.6-1.2c0.1-0.4,0.2-0.7,0.3-1C10.4,58.1,10.4,57.7,10.4,57.7L10.4,57.7z"/>
			
				<linearGradient id="SVGID_00000066474294048572798550000000016185795848538789_" gradientUnits="userSpaceOnUse" x1="12.853" y1="13.3297" x2="25.4371" y2="38.3386" gradientTransform="matrix(1 0 0 -1 0 72)">
				<stop  offset="0" style="stop-color:#38BDF8"/>
				<stop  offset="1" style="stop-color:#6366F1;stop-opacity:0.5"/>
			</linearGradient>
			<path style="fill:url(#SVGID_00000066474294048572798550000000016185795848538789_);" d="M15,55.2c0,0-0.4,0.5-0.9,1.2
				c-0.3,0.3-0.6,0.8-1,1.2c-0.2,0.2-0.4,0.4-0.6,0.7c-0.2,0.2-0.4,0.5-0.6,0.7c-0.2,0.2-0.4,0.5-0.6,0.7c-0.2,0.2-0.4,0.5-0.6,0.7
				c-0.4,0.5-0.8,0.9-1.1,1.4C9.4,62.2,9.2,62.6,9,63c-0.1,0.4-0.2,0.8,0,1.1c1.7-0.6,2.9-1.6,3.8-2.6c0.4-0.5,0.8-1,1.1-1.6
				c0.1-0.3,0.3-0.5,0.4-0.8c0.1-0.2,0.2-0.5,0.3-0.7c0.3-0.9,0.4-1.8,0.4-2.3C15,55.6,15,55.3,15,55.2L15,55.2z"/>
			
				<linearGradient id="SVGID_00000122680914889901277990000015925854841645320087_" gradientUnits="userSpaceOnUse" x1="15.7653" y1="11.8643" x2="28.3494" y2="36.8732" gradientTransform="matrix(1 0 0 -1 0 72)">
				<stop  offset="0" style="stop-color:#38BDF8"/>
				<stop  offset="1" style="stop-color:#6366F1;stop-opacity:0.5"/>
			</linearGradient>
			<path style="fill:url(#SVGID_00000122680914889901277990000015925854841645320087_);" d="M19,51.6c0,0-0.1,0.1-0.2,0.3
				s-0.2,0.6-0.5,1c-0.2,0.4-0.4,0.9-0.7,1.3c-0.2,0.5-0.5,1-0.8,1.6c-0.1,0.3-0.3,0.5-0.4,0.8s-0.3,0.5-0.4,0.8
				c-0.3,0.5-0.5,1.1-0.7,1.5c-0.2,0.5-0.3,0.9-0.4,1.3s0,0.8,0.2,1c1.4-1,2.4-2.3,3-3.4c0.6-1.2,0.9-2.3,1-3.3
				c0.1-0.5,0.1-0.9,0.1-1.3s0-0.7-0.1-1C19.1,51.9,19,51.6,19,51.6L19,51.6z"/>
			
				<linearGradient id="SVGID_00000138561353976958370380000010544138170828273570_" gradientUnits="userSpaceOnUse" x1="17.0198" y1="11.2331" x2="29.6038" y2="36.242" gradientTransform="matrix(1 0 0 -1 0 72)">
				<stop  offset="0" style="stop-color:#38BDF8"/>
				<stop  offset="1" style="stop-color:#6366F1;stop-opacity:0.5"/>
			</linearGradient>
			<path style="fill:url(#SVGID_00000138561353976958370380000010544138170828273570_);" d="M22.2,46.9c0,0,0,0.1-0.1,0.4
				c0,0.2-0.1,0.6-0.2,1c0,0.2-0.1,0.4-0.2,0.7s-0.1,0.5-0.2,0.8c-0.1,0.5-0.3,1.1-0.5,1.7c-0.2,0.6-0.3,1.2-0.5,1.7
				c-0.1,0.5-0.3,1.1-0.4,1.6c-0.2,1-0.1,1.8,0.3,2.2c1.1-1.3,1.7-2.7,2.1-3.9c0.2-0.6,0.3-1.2,0.3-1.8s0-1.1,0-1.5
				c-0.1-0.9-0.2-1.6-0.4-2.1C22.4,47.2,22.2,46.9,22.2,46.9L22.2,46.9z"/>
			
				<linearGradient id="SVGID_00000070095985670399212750000015156555549075592585_" gradientUnits="userSpaceOnUse" x1="17.3797" y1="11.052" x2="29.9637" y2="36.0609" gradientTransform="matrix(1 0 0 -1 0 72)">
				<stop  offset="0" style="stop-color:#38BDF8"/>
				<stop  offset="1" style="stop-color:#6366F1;stop-opacity:0.5"/>
			</linearGradient>
			<path style="fill:url(#SVGID_00000070095985670399212750000015156555549075592585_);" d="M24.5,41.5L24.5,41.5c0,0.2,0,0.3,0,0.4
				c0,0.2,0,0.6,0,1s-0.1,0.9-0.1,1.4s-0.1,1.1-0.1,1.7c0,0.6-0.1,1.2-0.1,1.7s0,1.1,0,1.6c0,1,0.2,1.7,0.7,2c0.7-1.5,1-2.9,1.1-4.1
				c0-0.6,0-1.2,0-1.7c-0.1-0.5-0.2-1-0.3-1.4c-0.2-0.8-0.5-1.4-0.8-1.8c-0.1-0.2-0.2-0.3-0.3-0.5C24.5,41.5,24.5,41.5,24.5,41.5
				L24.5,41.5z"/>
			
				<linearGradient id="SVGID_00000116210350636692948770000010153604849511749548_" gradientUnits="userSpaceOnUse" x1="16.3459" y1="11.5722" x2="28.93" y2="36.581" gradientTransform="matrix(1 0 0 -1 0 72)">
				<stop  offset="0" style="stop-color:#38BDF8"/>
				<stop  offset="1" style="stop-color:#6366F1;stop-opacity:0.5"/>
			</linearGradient>
			<path style="fill:url(#SVGID_00000116210350636692948770000010153604849511749548_);" d="M25.6,35.6c0,0,0.1,0.5,0.2,1.3
				c0.1,0.4,0.1,0.8,0.2,1.3c0,0.5,0.1,1,0.2,1.5c0.1,1.1,0.3,2.2,0.5,3c0.2,0.9,0.5,1.5,1,1.6c0.1-0.4,0.2-0.8,0.2-1.1
				c0.1-0.4,0.1-0.7,0.1-1.1c0-0.7,0-1.3-0.1-1.9c-0.2-1.2-0.5-2.1-0.9-2.8c-0.2-0.3-0.4-0.6-0.5-0.9c-0.2-0.2-0.4-0.5-0.5-0.6
				C25.8,35.7,25.6,35.6,25.6,35.6L25.6,35.6z"/>
			
				<linearGradient id="SVGID_00000055670011663987885940000016788692671762955427_" gradientUnits="userSpaceOnUse" x1="14.2143" y1="12.6448" x2="26.7983" y2="37.6536" gradientTransform="matrix(1 0 0 -1 0 72)">
				<stop  offset="0" style="stop-color:#38BDF8"/>
				<stop  offset="1" style="stop-color:#6366F1;stop-opacity:0.5"/>
			</linearGradient>
			<path style="fill:url(#SVGID_00000055670011663987885940000016788692671762955427_);" d="M25.6,29.5c0,0,0,0.1,0.1,0.3
				c0.1,0.2,0.2,0.5,0.3,0.8c0.1,0.3,0.3,0.7,0.4,1.2c0.1,0.2,0.2,0.4,0.2,0.7c0.1,0.2,0.2,0.5,0.2,0.7c0.2,0.5,0.3,0.9,0.5,1.4
				s0.4,0.9,0.5,1.2c0.4,0.7,0.8,1.2,1.3,1.2c0-0.8,0-1.4-0.1-2.1c0-0.3-0.1-0.6-0.2-0.9c-0.1-0.3-0.2-0.5-0.2-0.8
				c-0.4-1-0.9-1.8-1.3-2.3c-0.5-0.5-0.9-0.9-1.2-1.1c-0.2-0.1-0.3-0.2-0.4-0.2C25.7,29.5,25.6,29.5,25.6,29.5L25.6,29.5z"/>
			
				<linearGradient id="SVGID_00000126297902574579774150000011783417040379894430_" gradientUnits="userSpaceOnUse" x1="10.9428" y1="14.291" x2="23.5268" y2="39.2999" gradientTransform="matrix(1 0 0 -1 0 72)">
				<stop  offset="0" style="stop-color:#38BDF8"/>
				<stop  offset="1" style="stop-color:#6366F1;stop-opacity:0.5"/>
			</linearGradient>
			<path style="fill:url(#SVGID_00000126297902574579774150000011783417040379894430_);" d="M24.3,23.5c0,0,0.2,0.4,0.6,0.9
				c0.2,0.3,0.4,0.6,0.6,1s0.5,0.7,0.7,1.1c0.5,0.8,1,1.6,1.5,2.1c0.2,0.3,0.5,0.5,0.7,0.6s0.5,0.2,0.7,0.1
				c-0.1-0.7-0.3-1.3-0.5-1.8s-0.5-1-0.7-1.4c-0.3-0.4-0.5-0.8-0.8-1c-0.3-0.3-0.6-0.5-0.8-0.7c-0.5-0.4-1-0.6-1.3-0.7
				C24.5,23.5,24.3,23.4,24.3,23.5L24.3,23.5z"/>
			
				<linearGradient id="SVGID_00000082357354834984106930000000022713148742680494_" gradientUnits="userSpaceOnUse" x1="6.7396" y1="16.4059" x2="19.3237" y2="41.4148" gradientTransform="matrix(1 0 0 -1 0 72)">
				<stop  offset="0" style="stop-color:#38BDF8"/>
				<stop  offset="1" style="stop-color:#6366F1;stop-opacity:0.5"/>
			</linearGradient>
			<path style="fill:url(#SVGID_00000082357354834984106930000000022713148742680494_);" d="M21.9,17.9c0,0,1.1,1,2.3,2.3
				c0.3,0.3,0.6,0.6,0.9,0.9s0.6,0.5,0.9,0.7c0.5,0.4,1,0.6,1.4,0.3c-0.2-0.6-0.5-1.1-0.8-1.5s-0.6-0.8-0.9-1.1
				c-0.6-0.6-1.2-1-1.8-1.2c-0.5-0.2-1-0.3-1.3-0.3S21.9,17.9,21.9,17.9L21.9,17.9z"/>
			
				<linearGradient id="SVGID_00000136403115993264014050000012721967605539638943_" gradientUnits="userSpaceOnUse" x1="1.6377" y1="18.9731" x2="14.2218" y2="43.982" gradientTransform="matrix(1 0 0 -1 0 72)">
				<stop  offset="0" style="stop-color:#38BDF8"/>
				<stop  offset="1" style="stop-color:#6366F1;stop-opacity:0.5"/>
			</linearGradient>
			<path style="fill:url(#SVGID_00000136403115993264014050000012721967605539638943_);" d="M18.4,13c0,0,0.1,0,0.2,0.1
				s0.3,0.2,0.5,0.3c0.5,0.3,1.1,0.7,1.7,1c0.3,0.2,0.6,0.4,1,0.5c0.3,0.2,0.6,0.3,0.9,0.4c0.3,0.1,0.5,0.2,0.8,0.2
				c0.2,0,0.4-0.1,0.5-0.2c-1.4-1.8-2.9-2.4-3.9-2.6c-0.5-0.1-1,0-1.2,0C18.6,12.9,18.5,13,18.4,13L18.4,13z"/>
			
				<linearGradient id="SVGID_00000144303454638726168020000014195451242586329516_" gradientUnits="userSpaceOnUse" x1="-3.719" y1="21.6685" x2="8.8651" y2="46.6774" gradientTransform="matrix(1 0 0 -1 0 72)">
				<stop  offset="0" style="stop-color:#38BDF8"/>
				<stop  offset="1" style="stop-color:#6366F1;stop-opacity:0.5"/>
			</linearGradient>
			<path style="fill:url(#SVGID_00000144303454638726168020000014195451242586329516_);" d="M14.1,9.1c0,0,0.3,0.1,0.8,0.2
				c0.2,0.1,0.5,0.1,0.8,0.2c0.3,0.1,0.6,0.2,0.9,0.3s0.6,0.2,1,0.2c0.3,0.1,0.6,0.1,0.9,0.2c0.5,0,1-0.1,1.1-0.4
				c-1.5-1.3-3-1.4-3.9-1.3C14.6,8.8,14.1,9.2,14.1,9.1L14.1,9.1z"/>
			
				<linearGradient id="SVGID_00000142152718578167652350000008203593891394500521_" gradientUnits="userSpaceOnUse" x1="-9.2989" y1="24.4763" x2="3.2852" y2="49.4851" gradientTransform="matrix(1 0 0 -1 0 72)">
				<stop  offset="0" style="stop-color:#38BDF8"/>
				<stop  offset="1" style="stop-color:#6366F1;stop-opacity:0.5"/>
			</linearGradient>
			<path style="fill:url(#SVGID_00000142152718578167652350000008203593891394500521_);" d="M9,6.5c0,0,0.3,0,0.7,0
				c0.2,0,0.5,0,0.8,0s0.6,0,0.9,0c0.3,0,0.6,0,0.9,0s0.6,0,0.8-0.1C13.6,6.3,14,6.1,14,5.8c-0.4-0.2-0.8-0.3-1.1-0.4
				c-0.4-0.1-0.7-0.1-1-0.1s-0.6,0-0.9,0.1c-0.3,0.1-0.5,0.1-0.7,0.2C9.9,5.8,9.6,6.1,9.4,6.2C9.2,6.4,9,6.5,9,6.5L9,6.5z"/>
		</g>
		
			<linearGradient id="SVGID_00000141431657307405722910000016932559264032979348_" gradientUnits="userSpaceOnUse" x1="-14.4498" y1="27.0681" x2="-1.8657" y2="52.077" gradientTransform="matrix(1 0 0 -1 0 72)">
			<stop  offset="0" style="stop-color:#38BDF8"/>
			<stop  offset="1" style="stop-color:#6366F1;stop-opacity:0.5"/>
		</linearGradient>
		<path style="fill:url(#SVGID_00000141431657307405722910000016932559264032979348_);" d="M2.4,2.1c0,0,0.4-0.1,1.1-0.1
			c0.3,0,0.7,0,1.2-0.1c0.2,0,0.4,0,0.7,0c0.2,0,0.5,0,0.7,0C6.3,2,6.5,2,6.8,2C7,2,7.3,2.1,7.5,2.1c0.5,0.1,1,0.2,1.4,0.4
			C9.3,2.6,9.8,2.8,10.1,3c0.2,0.1,0.3,0.2,0.5,0.3c0.1,0.1,0.3,0.2,0.4,0.4c-0.3,0-0.7,0-1.1,0c-0.4,0-0.8-0.1-1.3-0.2
			c-0.2,0-0.4-0.1-0.7-0.2c-0.2,0-0.5-0.1-0.7-0.2C7,3.2,6.8,3.1,6.5,3C6.3,3,6.1,2.9,5.9,2.9C5.6,2.8,5.4,2.8,5.2,2.7
			C5,2.7,4.8,2.6,4.6,2.6C4.2,2.5,3.8,2.4,3.5,2.3C2.8,2.2,2.4,2.1,2.4,2.1L2.4,2.1z"/>
	</g>
</g>
</svg>
