<?xml version="1.0" encoding="utf-8"?>
<!-- Generator: Adobe Illustrator 26.4.1, SVG Export Plug-In . SVG Version: 6.00 Build 0)  -->
<svg version="1.1" id="_图层_2" xmlns="http://www.w3.org/2000/svg" xmlns:xlink="http://www.w3.org/1999/xlink" x="0px" y="0px"
	 viewBox="0 0 34 69.6" style="enable-background:new 0 0 34 69.6;" xml:space="preserve">
<style type="text/css">
	.st0{fill:url(#SVGID_1_);}
	.st1{fill:url(#SVGID_00000117643812471944840120000018221085986439539103_);}
	.st2{fill:url(#SVGID_00000075158113450747831040000009645475972660960665_);}
	.st3{fill:url(#SVGID_00000178927894315173197370000004465543686778176399_);}
	.st4{fill:url(#SVGID_00000114051050927499009370000002499957138065824146_);}
	.st5{fill:url(#SVGID_00000013170799910268078680000001060131389494850944_);}
	.st6{fill:url(#SVGID_00000082350391765453412430000004474860337502978740_);}
	.st7{fill:url(#SVGID_00000183220852323328232420000003209756313102232462_);}
	.st8{fill:url(#SVGID_00000110465777697667222550000008930549728261445515_);}
	.st9{fill:url(#SVGID_00000047749266950017736990000017412171972929244832_);}
	.st10{fill:url(#SVGID_00000021830753967920761360000001643418313083450021_);}
	.st11{fill:url(#SVGID_00000081639805355182625310000009918130062434725293_);}
	.st12{fill:url(#SVGID_00000093869027045579674210000014108948743075211418_);}
	.st13{fill:url(#SVGID_00000111167644694866124780000010016691026973739194_);}
	.st14{fill:url(#SVGID_00000134221529310187314110000014694614496379256255_);}
	.st15{fill:url(#SVGID_00000008858919680984769750000016687458511631761294_);}
	.st16{fill:url(#SVGID_00000124848995970612238530000005057907841641959819_);}
	.st17{fill:url(#SVGID_00000021828550550735078500000003778296558800455610_);}
	.st18{fill:url(#SVGID_00000141436634059319371450000013312313939336093824_);}
	.st19{fill:url(#SVGID_00000092419009606741426570000003489679696826135945_);}
	.st20{fill:url(#SVGID_00000096771108511900388040000003778868828095511992_);}
	.st21{fill:url(#SVGID_00000151537065361523066790000006890963715893650832_);}
	.st22{fill:url(#SVGID_00000092454805286454610510000005077313544444380074_);}
	.st23{fill:url(#SVGID_00000108279438265214147470000002724492778749794734_);}
	.st24{fill:url(#SVGID_00000111910278318265874160000012185007264305606279_);}
	.st25{fill:url(#SVGID_00000007396694949922360550000002503823231183989380_);}
</style>
<g id="laurel_wreath">
	<g>
		<linearGradient id="SVGID_1_" gradientUnits="userSpaceOnUse" x1="3.1226" y1="53.7741" x2="15.7067" y2="28.7652">
			<stop  offset="2.770450e-07" style="stop-color:#7DD3FC"/>
			<stop  offset="0.9883" style="stop-color:#F0F9FF"/>
		</linearGradient>
		<path class="st0" d="M0,65.2c13.5,0.9,25.7-9.3,28.8-24.5c1.5-7.5,0.6-15.7-2.7-22.4c-3.2-6.5-8.7-11.4-14.7-14.1
			c-1.1-0.5-2.2-1-3.3-1.3C7.6,2.7,7.3,2.4,7.8,2.5C13.7,4.4,19.6,7.7,23.7,13c4.1,5.2,6.2,12,6.6,19c0.6,14.1-7.1,27.3-18.5,32.2
			C8,65.7,4,66.3,0,66V65.2L0,65.2L0,65.2z"/>
		<g>
			
				<linearGradient id="SVGID_00000153672351475292883530000014564190845536397964_" gradientUnits="userSpaceOnUse" x1="12.785" y1="58.636" x2="25.3691" y2="33.6272">
				<stop  offset="2.770450e-07" style="stop-color:#7DD3FC"/>
				<stop  offset="0.9883" style="stop-color:#F0F9FF"/>
			</linearGradient>
			<path style="fill:url(#SVGID_00000153672351475292883530000014564190845536397964_);" d="M14.2,69.1c0,0-0.2,0-0.5,0.1
				c-0.4,0.1-0.8,0.1-1.4,0.2s-1.3,0.1-2,0.1s-1.5,0-2.3-0.2c-0.8-0.1-1.5-0.3-2.2-0.5S4.5,68.3,4,68c-1-0.7-1.6-1.4-1.5-2.2
				C4.4,66,6,66.1,7.4,66.4c0.3,0.1,0.7,0.2,1,0.2C8.7,66.9,9,67,9.3,67.1c0.6,0.2,1.2,0.3,1.7,0.5s1,0.4,1.4,0.5s0.7,0.3,1,0.5
				C13.9,68.9,14.2,69.1,14.2,69.1L14.2,69.1z"/>
			
				<linearGradient id="SVGID_00000151522789636224171750000004855152884934638750_" gradientUnits="userSpaceOnUse" x1="17.0877" y1="60.8011" x2="29.6718" y2="35.7922">
				<stop  offset="2.770450e-07" style="stop-color:#7DD3FC"/>
				<stop  offset="0.9883" style="stop-color:#F0F9FF"/>
			</linearGradient>
			<path style="fill:url(#SVGID_00000151522789636224171750000004855152884934638750_);" d="M20.7,64.9c0,0-0.2,0.1-0.5,0.2
				s-0.7,0.3-1.3,0.6c-0.5,0.2-1.1,0.4-1.8,0.6c-0.3,0.1-0.7,0.2-1,0.3c-0.4,0.1-0.7,0.1-1.1,0.2c-0.4,0.1-0.7,0.1-1.1,0.1
				c-0.4,0-0.7,0-1,0c-0.7,0-1.3-0.1-1.8-0.3s-1-0.4-1.3-0.6c-0.3-0.3-0.5-0.6-0.5-1c1.8-0.4,3.3-0.6,4.7-0.7
				c0.7-0.1,1.3-0.1,1.9-0.1c0.3,0,0.6,0,0.9,0c0.3,0,0.5,0,0.8,0c1,0.1,1.8,0.2,2.4,0.3S20.7,64.9,20.7,64.9L20.7,64.9z"/>
			
				<linearGradient id="SVGID_00000176009928405263270320000008307230682419952779_" gradientUnits="userSpaceOnUse" x1="20.0094" y1="62.2712" x2="32.5935" y2="37.2624">
				<stop  offset="2.770450e-07" style="stop-color:#7DD3FC"/>
				<stop  offset="0.9883" style="stop-color:#F0F9FF"/>
			</linearGradient>
			<path style="fill:url(#SVGID_00000176009928405263270320000008307230682419952779_);" d="M26.1,59.2c0,0-0.1,0.1-0.4,0.3
				c-0.2,0.2-0.6,0.5-1.1,0.8s-1,0.7-1.6,1s-1.2,0.7-1.9,1c-0.3,0.2-0.6,0.3-1,0.4c-0.3,0.1-0.6,0.2-1,0.3c-0.6,0.1-1.2,0.2-1.7,0.2
				s-1-0.1-1.3-0.2s-0.6-0.4-0.6-0.8c1.5-0.8,2.9-1.4,4.2-1.9c1.2-0.5,2.3-0.7,3.3-0.9c0.5-0.1,0.9-0.2,1.3-0.2s0.7-0.1,1-0.1
				C25.8,59.2,26.1,59.2,26.1,59.2L26.1,59.2z"/>
			
				<linearGradient id="SVGID_00000122695108019133955980000015752553624609234830_" gradientUnits="userSpaceOnUse" x1="21.7306" y1="63.1373" x2="34.3147" y2="38.1285">
				<stop  offset="2.770450e-07" style="stop-color:#7DD3FC"/>
				<stop  offset="0.9883" style="stop-color:#F0F9FF"/>
			</linearGradient>
			<path style="fill:url(#SVGID_00000122695108019133955980000015752553624609234830_);" d="M30.3,52.3c0,0-0.1,0.2-0.3,0.4
				c-0.2,0.3-0.5,0.6-0.8,1c-0.2,0.2-0.4,0.4-0.6,0.7c-0.2,0.2-0.4,0.4-0.7,0.7c-0.5,0.5-1,0.9-1.5,1.3c-0.5,0.4-1.1,0.8-1.6,1.1
				s-1.1,0.5-1.5,0.7c-1,0.3-1.7,0.2-2-0.4c1.3-1.2,2.4-2.1,3.5-2.8c0.5-0.4,1-0.7,1.5-1s0.9-0.5,1.3-0.7c0.8-0.4,1.5-0.7,2-0.8
				C30,52.3,30.3,52.3,30.3,52.3L30.3,52.3z"/>
			
				<linearGradient id="SVGID_00000060738344598956649750000017244757223842223503_" gradientUnits="userSpaceOnUse" x1="21.7214" y1="63.1327" x2="34.3055" y2="38.1239">
				<stop  offset="2.770450e-07" style="stop-color:#7DD3FC"/>
				<stop  offset="0.9883" style="stop-color:#F0F9FF"/>
			</linearGradient>
			<path style="fill:url(#SVGID_00000060738344598956649750000017244757223842223503_);" d="M32.9,44.5
				C32.9,44.5,32.9,44.5,32.9,44.5c0,0.2-0.1,0.3-0.2,0.4c-0.1,0.3-0.3,0.7-0.6,1.1c-0.2,0.5-0.6,1-0.9,1.5s-0.8,1.1-1.1,1.6
				c-0.4,0.5-0.9,1-1.3,1.4c-0.5,0.4-0.9,0.8-1.3,1c-0.8,0.5-1.5,0.6-1.9,0.2c0.9-1.4,1.8-2.5,2.6-3.5c0.4-0.5,0.8-0.9,1.2-1.3
				c0.4-0.4,0.7-0.7,1.1-1c0.7-0.6,1.3-1,1.7-1.2c0.2-0.1,0.4-0.2,0.5-0.3C32.9,44.5,32.9,44.5,32.9,44.5L32.9,44.5z"/>
			
				<linearGradient id="SVGID_00000000196383101078325390000006293582839105428668_" gradientUnits="userSpaceOnUse" x1="20.6379" y1="62.5875" x2="33.222" y2="37.5786">
				<stop  offset="2.770450e-07" style="stop-color:#7DD3FC"/>
				<stop  offset="0.9883" style="stop-color:#F0F9FF"/>
			</linearGradient>
			<path style="fill:url(#SVGID_00000000196383101078325390000006293582839105428668_);" d="M34,36.2c0,0,0,0.2-0.1,0.5
				s-0.2,0.7-0.3,1.2s-0.3,1-0.5,1.6s-0.5,1.2-0.7,1.8c-0.6,1.2-1.2,2.2-1.9,2.9c-0.7,0.7-1.3,1-1.7,0.6c0.1-0.4,0.3-0.7,0.4-1.1
				s0.3-0.7,0.4-1c0.3-0.6,0.6-1.2,0.9-1.8c0.6-1.1,1.2-1.9,1.7-2.6c0.3-0.3,0.5-0.7,0.7-0.9c0.2-0.3,0.4-0.5,0.6-0.6
				C33.8,36.4,34,36.2,34,36.2L34,36.2z"/>
			
				<linearGradient id="SVGID_00000101078678511953863490000010148589265941410976_" gradientUnits="userSpaceOnUse" x1="17.8102" y1="61.1646" x2="30.3943" y2="36.1558">
				<stop  offset="2.770450e-07" style="stop-color:#7DD3FC"/>
				<stop  offset="0.9883" style="stop-color:#F0F9FF"/>
			</linearGradient>
			<path style="fill:url(#SVGID_00000101078678511953863490000010148589265941410976_);" d="M33.5,28c0,0,0,0.2,0,0.4
				c0,0.3,0,0.7-0.1,1.1c0,0.5-0.1,1-0.2,1.6c0,0.3-0.1,0.6-0.2,0.9c-0.1,0.3-0.1,0.6-0.2,0.9c-0.1,0.3-0.2,0.6-0.2,0.9
				c-0.1,0.3-0.2,0.6-0.3,0.8c-0.2,0.5-0.4,1-0.6,1.4c-0.5,0.8-1,1.2-1.4,1c0.4-3.1,1.1-5.2,1.9-6.8c0.3-0.8,0.7-1.3,0.9-1.7
				c0.1-0.2,0.2-0.3,0.3-0.4C33.4,28,33.4,28,33.5,28L33.5,28z"/>
			
				<linearGradient id="SVGID_00000078762127424250088940000006348188412657627578_" gradientUnits="userSpaceOnUse" x1="13.5769" y1="59.0345" x2="26.161" y2="34.0256">
				<stop  offset="2.770450e-07" style="stop-color:#7DD3FC"/>
				<stop  offset="0.9883" style="stop-color:#F0F9FF"/>
			</linearGradient>
			<path style="fill:url(#SVGID_00000078762127424250088940000006348188412657627578_);" d="M31.3,20.1c0,0,0.1,0.6,0.2,1.5
				c0,0.4,0.1,1,0.1,1.5s0,1.1,0,1.7c0,1.1-0.2,2.3-0.5,3.1c-0.1,0.4-0.3,0.7-0.5,1c-0.2,0.2-0.4,0.3-0.6,0.3c0-0.7-0.1-1.4-0.1-2
				s0-1.2,0.1-1.8c0-0.5,0.1-1,0.2-1.5s0.1-0.9,0.2-1.3c0.2-0.8,0.4-1.4,0.5-1.8C31.2,20.4,31.3,20.1,31.3,20.1L31.3,20.1z"/>
			
				<linearGradient id="SVGID_00000006665411179255752380000009508636059603181737_" gradientUnits="userSpaceOnUse" x1="8.4167" y1="56.438" x2="21.0008" y2="31.4291">
				<stop  offset="2.770450e-07" style="stop-color:#7DD3FC"/>
				<stop  offset="0.9883" style="stop-color:#F0F9FF"/>
			</linearGradient>
			<path style="fill:url(#SVGID_00000006665411179255752380000009508636059603181737_);" d="M27.7,13.1c0,0,0,0.1,0.1,0.3
				s0.2,0.5,0.3,0.9c0.1,0.4,0.3,0.8,0.4,1.3s0.2,1,0.3,1.5c0.1,0.5,0.1,1,0.2,1.5c0,0.5,0,1,0,1.4c-0.1,0.8-0.3,1.4-0.7,1.5
				c-0.7-2.5-0.9-4.6-0.9-6.1c0-0.7,0.1-1.3,0.2-1.7C27.6,13.3,27.7,13.1,27.7,13.1L27.7,13.1z"/>
			
				<linearGradient id="SVGID_00000113355391925969135320000005789083974795364227_" gradientUnits="userSpaceOnUse" x1="2.5237" y1="53.4727" x2="15.1078" y2="28.4639">
				<stop  offset="2.770450e-07" style="stop-color:#7DD3FC"/>
				<stop  offset="0.9883" style="stop-color:#F0F9FF"/>
			</linearGradient>
			<path style="fill:url(#SVGID_00000113355391925969135320000005789083974795364227_);" d="M22.9,7.2c0,0,0.1,0.1,0.2,0.3
				c0.1,0.2,0.3,0.4,0.4,0.7c0.4,0.6,0.8,1.5,1.1,2.3c0.2,0.4,0.3,0.9,0.5,1.3c0.1,0.4,0.2,0.9,0.2,1.2c0.1,0.7,0,1.3-0.4,1.5
				c-1.1-2.1-1.7-3.8-1.9-5.2c-0.1-0.7-0.2-1.2-0.2-1.6C22.9,7.4,22.9,7.2,22.9,7.2L22.9,7.2z"/>
			
				<linearGradient id="SVGID_00000036962165253039769590000016504664241174864517_" gradientUnits="userSpaceOnUse" x1="-3.7474" y1="50.3172" x2="8.8367" y2="25.3083">
				<stop  offset="2.770450e-07" style="stop-color:#7DD3FC"/>
				<stop  offset="0.9883" style="stop-color:#F0F9FF"/>
			</linearGradient>
			<path style="fill:url(#SVGID_00000036962165253039769590000016504664241174864517_);" d="M17.1,2.8c0,0,0.3,0.3,0.7,0.8
				C18,3.8,18.3,4,18.5,4.3s0.5,0.6,0.7,1s0.5,0.7,0.6,1.1c0.2,0.3,0.3,0.7,0.4,1c0.2,0.6,0.2,1.1,0,1.4c-1.4-1.6-2.2-3-2.7-4.1
				C17.2,3.6,17.1,2.8,17.1,2.8z"/>
			
				<linearGradient id="SVGID_00000022559168753157088310000005353702104738667154_" gradientUnits="userSpaceOnUse" x1="-10.036" y1="47.1528" x2="2.548" y2="22.144">
				<stop  offset="2.770450e-07" style="stop-color:#7DD3FC"/>
				<stop  offset="0.9883" style="stop-color:#F0F9FF"/>
			</linearGradient>
			<path style="fill:url(#SVGID_00000022559168753157088310000005353702104738667154_);" d="M10.6,0c0,0,0.3,0.2,0.8,0.5
				c0.4,0.3,1.1,0.7,1.6,1.2c0.3,0.2,0.5,0.5,0.8,0.8C14,2.8,14.2,3,14.3,3.3c0.3,0.5,0.4,1,0.2,1.2c-0.4-0.2-0.7-0.5-1.1-0.8
				c-0.3-0.2-0.6-0.5-0.9-0.8S12,2.4,11.8,2.1c-0.2-0.2-0.4-0.5-0.5-0.7c-0.3-0.5-0.5-0.8-0.6-1.1C10.7,0.2,10.6,0,10.6,0L10.6,0z"
				/>
		</g>
		<g>
			
				<linearGradient id="SVGID_00000119808803656674989080000016085819829468372628_" gradientUnits="userSpaceOnUse" x1="9.0028" y1="56.7329" x2="21.5869" y2="31.724">
				<stop  offset="2.770450e-07" style="stop-color:#7DD3FC"/>
				<stop  offset="0.9883" style="stop-color:#F0F9FF"/>
			</linearGradient>
			<path style="fill:url(#SVGID_00000119808803656674989080000016085819829468372628_);" d="M10.4,57.7c0,0-0.1,0.1-0.3,0.3
				s-0.5,0.4-0.8,0.7c-0.4,0.3-0.8,0.6-1.2,1c-0.5,0.3-0.9,0.7-1.5,1.1c-0.5,0.4-1,0.7-1.5,1.1c-0.5,0.4-1,0.7-1.4,1.1
				c-0.8,0.7-1.4,1.5-1.2,2.2c1.8-0.2,3.3-0.8,4.4-1.6c0.3-0.2,0.5-0.4,0.8-0.6c0.2-0.2,0.5-0.4,0.7-0.7c0.4-0.4,0.7-0.9,1-1.3
				c0.3-0.4,0.4-0.9,0.6-1.2c0.1-0.4,0.2-0.7,0.3-1C10.4,58.1,10.4,57.7,10.4,57.7L10.4,57.7z"/>
			
				<linearGradient id="SVGID_00000053522564427431886880000007408129267072259751_" gradientUnits="userSpaceOnUse" x1="12.853" y1="58.6703" x2="25.4371" y2="33.6614">
				<stop  offset="2.770450e-07" style="stop-color:#7DD3FC"/>
				<stop  offset="0.9883" style="stop-color:#F0F9FF"/>
			</linearGradient>
			<path style="fill:url(#SVGID_00000053522564427431886880000007408129267072259751_);" d="M15,55.2c0,0-0.4,0.5-0.9,1.2
				c-0.3,0.3-0.6,0.8-1,1.2c-0.2,0.2-0.4,0.4-0.6,0.7c-0.2,0.2-0.4,0.5-0.6,0.7c-0.2,0.2-0.4,0.5-0.6,0.7c-0.2,0.2-0.4,0.5-0.6,0.7
				c-0.4,0.5-0.8,0.9-1.1,1.4C9.4,62.2,9.2,62.6,9,63c-0.1,0.4-0.2,0.8,0,1.1c1.7-0.6,2.9-1.6,3.8-2.6c0.4-0.5,0.8-1,1.1-1.6
				c0.1-0.3,0.3-0.5,0.4-0.8c0.1-0.2,0.2-0.5,0.3-0.7c0.3-0.9,0.4-1.8,0.4-2.3C15,55.6,15,55.3,15,55.2L15,55.2z"/>
			
				<linearGradient id="SVGID_00000132782411039941848990000017342666694746927772_" gradientUnits="userSpaceOnUse" x1="15.7653" y1="60.1357" x2="28.3494" y2="35.1268">
				<stop  offset="2.770450e-07" style="stop-color:#7DD3FC"/>
				<stop  offset="0.9883" style="stop-color:#F0F9FF"/>
			</linearGradient>
			<path style="fill:url(#SVGID_00000132782411039941848990000017342666694746927772_);" d="M19,51.6c0,0-0.1,0.1-0.2,0.3
				s-0.2,0.6-0.5,1c-0.2,0.4-0.4,0.9-0.7,1.3c-0.2,0.5-0.5,1-0.8,1.6c-0.1,0.3-0.3,0.5-0.4,0.8s-0.3,0.5-0.4,0.8
				c-0.3,0.5-0.5,1.1-0.7,1.5c-0.2,0.5-0.3,0.9-0.4,1.3s0,0.8,0.2,1c1.4-1,2.4-2.3,3-3.4c0.6-1.2,0.9-2.3,1-3.3
				c0.1-0.5,0.1-0.9,0.1-1.3s0-0.7-0.1-1C19.1,51.9,19,51.6,19,51.6L19,51.6z"/>
			
				<linearGradient id="SVGID_00000114783013541958665280000016522406158730573236_" gradientUnits="userSpaceOnUse" x1="17.0198" y1="60.7669" x2="29.6038" y2="35.758">
				<stop  offset="2.770450e-07" style="stop-color:#7DD3FC"/>
				<stop  offset="0.9883" style="stop-color:#F0F9FF"/>
			</linearGradient>
			<path style="fill:url(#SVGID_00000114783013541958665280000016522406158730573236_);" d="M22.2,46.9c0,0,0,0.1-0.1,0.4
				c0,0.2-0.1,0.6-0.2,1c0,0.2-0.1,0.4-0.2,0.7s-0.1,0.5-0.2,0.8c-0.1,0.5-0.3,1.1-0.5,1.7c-0.2,0.6-0.3,1.2-0.5,1.7
				c-0.1,0.5-0.3,1.1-0.4,1.6c-0.2,1-0.1,1.8,0.3,2.2c1.1-1.3,1.7-2.7,2.1-3.9c0.2-0.6,0.3-1.2,0.3-1.8s0-1.1,0-1.5
				c-0.1-0.9-0.2-1.6-0.4-2.1C22.4,47.2,22.2,46.9,22.2,46.9L22.2,46.9z"/>
			
				<linearGradient id="SVGID_00000009559237377933767100000003868261443878905778_" gradientUnits="userSpaceOnUse" x1="17.3797" y1="60.948" x2="29.9637" y2="35.9391">
				<stop  offset="2.770450e-07" style="stop-color:#7DD3FC"/>
				<stop  offset="0.9883" style="stop-color:#F0F9FF"/>
			</linearGradient>
			<path style="fill:url(#SVGID_00000009559237377933767100000003868261443878905778_);" d="M24.5,41.5L24.5,41.5c0,0.2,0,0.3,0,0.4
				c0,0.2,0,0.6,0,1s-0.1,0.9-0.1,1.4s-0.1,1.1-0.1,1.7c0,0.6-0.1,1.2-0.1,1.7s0,1.1,0,1.6c0,1,0.2,1.7,0.7,2c0.7-1.5,1-2.9,1.1-4.1
				c0-0.6,0-1.2,0-1.7c-0.1-0.5-0.2-1-0.3-1.4c-0.2-0.8-0.5-1.4-0.8-1.8c-0.1-0.2-0.2-0.3-0.3-0.5C24.5,41.5,24.5,41.5,24.5,41.5
				L24.5,41.5z"/>
			
				<linearGradient id="SVGID_00000036219224159325859010000010262701492607877772_" gradientUnits="userSpaceOnUse" x1="16.3459" y1="60.4278" x2="28.93" y2="35.419">
				<stop  offset="2.770450e-07" style="stop-color:#7DD3FC"/>
				<stop  offset="0.9883" style="stop-color:#F0F9FF"/>
			</linearGradient>
			<path style="fill:url(#SVGID_00000036219224159325859010000010262701492607877772_);" d="M25.6,35.6c0,0,0.1,0.5,0.2,1.3
				c0.1,0.4,0.1,0.8,0.2,1.3c0,0.5,0.1,1,0.2,1.5c0.1,1.1,0.3,2.2,0.5,3c0.2,0.9,0.5,1.5,1,1.6c0.1-0.4,0.2-0.8,0.2-1.1
				c0.1-0.4,0.1-0.7,0.1-1.1c0-0.7,0-1.3-0.1-1.9c-0.2-1.2-0.5-2.1-0.9-2.8c-0.2-0.3-0.4-0.6-0.5-0.9c-0.2-0.2-0.4-0.5-0.5-0.6
				C25.8,35.7,25.6,35.6,25.6,35.6L25.6,35.6z"/>
			
				<linearGradient id="SVGID_00000151523385226507389710000009869828894868435592_" gradientUnits="userSpaceOnUse" x1="14.2143" y1="59.3552" x2="26.7983" y2="34.3464">
				<stop  offset="2.770450e-07" style="stop-color:#7DD3FC"/>
				<stop  offset="0.9883" style="stop-color:#F0F9FF"/>
			</linearGradient>
			<path style="fill:url(#SVGID_00000151523385226507389710000009869828894868435592_);" d="M25.6,29.5c0,0,0,0.1,0.1,0.3
				c0.1,0.2,0.2,0.5,0.3,0.8c0.1,0.3,0.3,0.7,0.4,1.2c0.1,0.2,0.2,0.4,0.2,0.7c0.1,0.2,0.2,0.5,0.2,0.7c0.2,0.5,0.3,0.9,0.5,1.4
				s0.4,0.9,0.5,1.2c0.4,0.7,0.8,1.2,1.3,1.2c0-0.8,0-1.4-0.1-2.1c0-0.3-0.1-0.6-0.2-0.9c-0.1-0.3-0.2-0.5-0.2-0.8
				c-0.4-1-0.9-1.8-1.3-2.3c-0.5-0.5-0.9-0.9-1.2-1.1c-0.2-0.1-0.3-0.2-0.4-0.2C25.7,29.5,25.6,29.5,25.6,29.5L25.6,29.5z"/>
			
				<linearGradient id="SVGID_00000008119096435155961430000004631973957140683137_" gradientUnits="userSpaceOnUse" x1="10.9427" y1="57.709" x2="23.5267" y2="32.7001">
				<stop  offset="2.770450e-07" style="stop-color:#7DD3FC"/>
				<stop  offset="0.9883" style="stop-color:#F0F9FF"/>
			</linearGradient>
			<path style="fill:url(#SVGID_00000008119096435155961430000004631973957140683137_);" d="M24.3,23.5c0,0,0.2,0.4,0.6,0.9
				c0.2,0.3,0.4,0.6,0.6,1s0.5,0.7,0.7,1.1c0.5,0.8,1,1.6,1.5,2.1c0.2,0.3,0.5,0.5,0.7,0.6s0.5,0.2,0.7,0.1
				c-0.1-0.7-0.3-1.3-0.5-1.8s-0.5-1-0.7-1.4c-0.3-0.4-0.5-0.8-0.8-1c-0.3-0.3-0.6-0.5-0.8-0.7c-0.5-0.4-1-0.6-1.3-0.7
				C24.5,23.5,24.3,23.4,24.3,23.5L24.3,23.5z"/>
			
				<linearGradient id="SVGID_00000139281933205120800490000011198705385891199631_" gradientUnits="userSpaceOnUse" x1="6.7396" y1="55.5941" x2="19.3237" y2="30.5852">
				<stop  offset="2.770450e-07" style="stop-color:#7DD3FC"/>
				<stop  offset="0.9883" style="stop-color:#F0F9FF"/>
			</linearGradient>
			<path style="fill:url(#SVGID_00000139281933205120800490000011198705385891199631_);" d="M21.9,17.9c0,0,1.1,1,2.3,2.3
				c0.3,0.3,0.6,0.6,0.9,0.9s0.6,0.5,0.9,0.7c0.5,0.4,1,0.6,1.4,0.3c-0.2-0.6-0.5-1.1-0.8-1.5s-0.6-0.8-0.9-1.1
				c-0.6-0.6-1.2-1-1.8-1.2c-0.5-0.2-1-0.3-1.3-0.3S21.9,17.9,21.9,17.9L21.9,17.9z"/>
			
				<linearGradient id="SVGID_00000071546534431677074140000001927504966825509252_" gradientUnits="userSpaceOnUse" x1="1.6377" y1="53.0269" x2="14.2218" y2="28.018">
				<stop  offset="2.770450e-07" style="stop-color:#7DD3FC"/>
				<stop  offset="0.9883" style="stop-color:#F0F9FF"/>
			</linearGradient>
			<path style="fill:url(#SVGID_00000071546534431677074140000001927504966825509252_);" d="M18.4,13c0,0,0.1,0,0.2,0.1
				s0.3,0.2,0.5,0.3c0.5,0.3,1.1,0.7,1.7,1c0.3,0.2,0.6,0.4,1,0.5c0.3,0.2,0.6,0.3,0.9,0.4c0.3,0.1,0.5,0.2,0.8,0.2
				c0.2,0,0.4-0.1,0.5-0.2c-1.4-1.8-2.9-2.4-3.9-2.6c-0.5-0.1-1,0-1.2,0C18.6,12.9,18.5,13,18.4,13L18.4,13z"/>
			
				<linearGradient id="SVGID_00000150818728698087314390000002999777004554879418_" gradientUnits="userSpaceOnUse" x1="-3.719" y1="50.3315" x2="8.8651" y2="25.3226">
				<stop  offset="2.770450e-07" style="stop-color:#7DD3FC"/>
				<stop  offset="0.9883" style="stop-color:#F0F9FF"/>
			</linearGradient>
			<path style="fill:url(#SVGID_00000150818728698087314390000002999777004554879418_);" d="M14.1,9.1c0,0,0.3,0.1,0.8,0.2
				c0.2,0.1,0.5,0.1,0.8,0.2c0.3,0.1,0.6,0.2,0.9,0.3s0.6,0.2,1,0.2c0.3,0.1,0.6,0.1,0.9,0.2c0.5,0,1-0.1,1.1-0.4
				c-1.5-1.3-3-1.4-3.9-1.3C14.6,8.8,14.1,9.2,14.1,9.1L14.1,9.1z"/>
			
				<linearGradient id="SVGID_00000147905083694347071690000014297951963484989103_" gradientUnits="userSpaceOnUse" x1="-9.2989" y1="47.5237" x2="3.2852" y2="22.5149">
				<stop  offset="2.770450e-07" style="stop-color:#7DD3FC"/>
				<stop  offset="0.9883" style="stop-color:#F0F9FF"/>
			</linearGradient>
			<path style="fill:url(#SVGID_00000147905083694347071690000014297951963484989103_);" d="M9,6.5c0,0,0.3,0,0.7,0
				c0.2,0,0.5,0,0.8,0s0.6,0,0.9,0c0.3,0,0.6,0,0.9,0s0.6,0,0.8-0.1C13.6,6.3,14,6.1,14,5.8c-0.4-0.2-0.8-0.3-1.1-0.4
				c-0.4-0.1-0.7-0.1-1-0.1s-0.6,0-0.9,0.1c-0.3,0.1-0.5,0.1-0.7,0.2C9.9,5.8,9.6,6.1,9.4,6.2C9.2,6.4,9,6.5,9,6.5L9,6.5z"/>
		</g>
		
			<linearGradient id="SVGID_00000034074130359624095360000006783770767729621398_" gradientUnits="userSpaceOnUse" x1="-14.4498" y1="44.9319" x2="-1.8657" y2="19.923">
			<stop  offset="2.770450e-07" style="stop-color:#7DD3FC"/>
			<stop  offset="0.9883" style="stop-color:#F0F9FF"/>
		</linearGradient>
		<path style="fill:url(#SVGID_00000034074130359624095360000006783770767729621398_);" d="M2.4,2.1c0,0,0.4-0.1,1.1-0.1
			c0.3,0,0.7,0,1.2-0.1c0.2,0,0.4,0,0.7,0c0.2,0,0.5,0,0.7,0C6.3,2,6.5,2,6.8,2C7,2,7.3,2.1,7.5,2.1c0.5,0.1,1,0.2,1.4,0.4
			C9.3,2.6,9.8,2.8,10.1,3c0.2,0.1,0.3,0.2,0.5,0.3c0.1,0.1,0.3,0.2,0.4,0.4c-0.3,0-0.7,0-1.1,0c-0.4,0-0.8-0.1-1.3-0.2
			c-0.2,0-0.4-0.1-0.7-0.2c-0.2,0-0.5-0.1-0.7-0.2C7,3.2,6.8,3.1,6.5,3C6.3,3,6.1,2.9,5.9,2.9C5.6,2.8,5.4,2.8,5.2,2.7
			C5,2.7,4.8,2.6,4.6,2.6C4.2,2.5,3.8,2.4,3.5,2.3C2.8,2.2,2.4,2.1,2.4,2.1L2.4,2.1z"/>
	</g>
</g>
</svg>
