<?xml version="1.0" encoding="utf-8"?>
<!-- Generator: Adobe Illustrator 26.4.1, SVG Export Plug-In . SVG Version: 6.00 Build 0)  -->
<svg version="1.1" id="_图层_2" xmlns="http://www.w3.org/2000/svg" xmlns:xlink="http://www.w3.org/1999/xlink" x="0px" y="0px"
	 viewBox="0 0 34 69.6" style="enable-background:new 0 0 34 69.6;" xml:space="preserve">
<style type="text/css">
	.st0{fill:url(#SVGID_1_);}
	.st1{fill:url(#SVGID_00000103262257191281429630000004597746933273467560_);}
	.st2{fill:url(#SVGID_00000163753388497184329330000009047625097766700699_);}
	.st3{fill:url(#SVGID_00000139986093650666638310000018397712822899430020_);}
	.st4{fill:url(#SVGID_00000034775399303521492910000002028495122890831288_);}
	.st5{fill:url(#SVGID_00000160160748717206184710000018258501074349643136_);}
	.st6{fill:url(#SVGID_00000077292921603884039950000016125640415811618999_);}
	.st7{fill:url(#SVGID_00000063598341666521923090000001028413750133279106_);}
	.st8{fill:url(#SVGID_00000165952862209373753900000008462297966045538484_);}
	.st9{fill:url(#SVGID_00000007422035788830059990000017849065821842192278_);}
	.st10{fill:url(#SVGID_00000148641025132231334220000004140544311079850148_);}
	.st11{fill:url(#SVGID_00000060724234346923172470000018354217020312955063_);}
	.st12{fill:url(#SVGID_00000021094638861453440720000007870783630967379086_);}
	.st13{fill:url(#SVGID_00000147920831985660663510000007389106361235782837_);}
	.st14{fill:url(#SVGID_00000124845725413167894210000003231442787201947803_);}
	.st15{fill:url(#SVGID_00000013165357065193557160000015151332288234870936_);}
	.st16{fill:url(#SVGID_00000037687034840122642050000012107942679082478507_);}
	.st17{fill:url(#SVGID_00000036229598200603990750000003648351295674809488_);}
	.st18{fill:url(#SVGID_00000006678204031618569240000005703531107196784054_);}
	.st19{fill:url(#SVGID_00000041983734457858125760000006760426885099665581_);}
	.st20{fill:url(#SVGID_00000064340035786977287700000000096478022280210878_);}
	.st21{fill:url(#SVGID_00000129201415564079362130000007363676205802802341_);}
	.st22{fill:url(#SVGID_00000045583926729671488680000009766388153543909814_);}
	.st23{fill:url(#SVGID_00000112601341990534689500000008553647636930380174_);}
	.st24{fill:url(#SVGID_00000129919679962731390310000003857453704227517843_);}
	.st25{fill:url(#SVGID_00000111172863934802535510000002835271973718888867_);}
</style>
<g id="laurel_wreath">
	<linearGradient id="SVGID_1_" gradientUnits="userSpaceOnUse" x1="33.6988" y1="51.2478" x2="4.2298" y2="7.4956">
		<stop  offset="2.770450e-07" style="stop-color:#7DD3FC"/>
		<stop  offset="0.9883" style="stop-color:#F0F9FF"/>
	</linearGradient>
	<path class="st0" d="M34,65.2C20.5,66.1,8.3,55.9,5.2,40.7C3.6,33.1,4.6,25,7.9,18.2c3.2-6.5,8.7-11.4,14.7-14.1
		c1.1-0.5,2.2-1,3.3-1.3c0.4-0.1,0.7-0.5,0.3-0.3C20.3,4.4,14.5,7.7,10.3,13c-4.1,5.2-6.2,12-6.6,19c-0.6,14.1,7.1,27.3,18.5,32.2
		C26,65.7,30,66.3,34,66V65.2L34,65.2L34,65.2z"/>
	<g>
		<g>
			
				<linearGradient id="SVGID_00000108302918315662886290000007558889918420881294_" gradientUnits="userSpaceOnUse" x1="20.6547" y1="60.0336" x2="-8.8143" y2="16.2814">
				<stop  offset="2.770450e-07" style="stop-color:#7DD3FC"/>
				<stop  offset="0.9883" style="stop-color:#F0F9FF"/>
			</linearGradient>
			<path style="fill:url(#SVGID_00000108302918315662886290000007558889918420881294_);" d="M19.8,69.1c0,0,0.2,0,0.5,0.1
				c0.4,0.1,0.9,0.1,1.4,0.2c0.6,0.1,1.3,0.1,2,0.1s1.5,0,2.3-0.2c0.8-0.1,1.5-0.3,2.2-0.5s1.3-0.5,1.8-0.8c1-0.7,1.6-1.4,1.5-2.2
				c-1.9,0.2-3.5,0.3-4.9,0.6c-0.4,0.1-0.7,0.2-1,0.2c-0.3,0.1-0.6,0.2-1,0.2c-0.6,0.2-1.2,0.3-1.7,0.5s-1,0.4-1.4,0.5
				c-0.4,0.2-0.7,0.3-1,0.5C20.1,68.9,19.8,69.1,19.8,69.1L19.8,69.1z"/>
			
				<linearGradient id="SVGID_00000070802750006259643960000009518330500023437698_" gradientUnits="userSpaceOnUse" x1="17.2384" y1="62.3346" x2="-12.2306" y2="18.5824">
				<stop  offset="2.770450e-07" style="stop-color:#7DD3FC"/>
				<stop  offset="0.9883" style="stop-color:#F0F9FF"/>
			</linearGradient>
			<path style="fill:url(#SVGID_00000070802750006259643960000009518330500023437698_);" d="M13.3,64.9c0,0,0.2,0.1,0.5,0.2
				s0.7,0.3,1.3,0.6c0.5,0.2,1.2,0.4,1.8,0.6c0.3,0.1,0.7,0.2,1,0.3c0.4,0.1,0.7,0.1,1.1,0.2s0.7,0.1,1.1,0.1s0.7,0,1,0
				c0.7,0,1.3-0.1,1.8-0.3s1-0.4,1.3-0.6c0.3-0.3,0.5-0.6,0.5-1c-1.8-0.4-3.3-0.6-4.7-0.7c-0.7-0.1-1.3-0.1-1.9-0.1
				c-0.3,0-0.6,0-0.9,0s-0.5,0-0.8,0c-1,0.1-1.8,0.2-2.4,0.3S13.3,64.9,13.3,64.9L13.3,64.9z"/>
			
				<linearGradient id="SVGID_00000170977426752007225190000003395133169594987162_" gradientUnits="userSpaceOnUse" x1="15.1833" y1="63.7188" x2="-14.2857" y2="19.9666">
				<stop  offset="2.770450e-07" style="stop-color:#7DD3FC"/>
				<stop  offset="0.9883" style="stop-color:#F0F9FF"/>
			</linearGradient>
			<path style="fill:url(#SVGID_00000170977426752007225190000003395133169594987162_);" d="M7.9,59.2c0,0,0.1,0.1,0.4,0.3
				c0.2,0.2,0.6,0.5,1.1,0.8c0.4,0.3,1,0.7,1.6,1s1.2,0.7,1.9,1c0.3,0.2,0.6,0.3,1,0.4c0.3,0.1,0.6,0.2,0.9,0.3
				c0.6,0.1,1.2,0.2,1.7,0.2s1-0.1,1.3-0.2c0.3-0.2,0.6-0.4,0.6-0.8c-1.5-0.8-2.9-1.4-4.2-1.9c-1.2-0.5-2.3-0.7-3.3-0.9
				c-0.5-0.1-0.9-0.2-1.3-0.2c-0.4,0-0.7-0.1-1-0.1C8.2,59.2,7.9,59.2,7.9,59.2L7.9,59.2z"/>
			
				<linearGradient id="SVGID_00000026163978396582520300000002389268311877253780_" gradientUnits="userSpaceOnUse" x1="14.496" y1="64.1817" x2="-14.973" y2="20.4295">
				<stop  offset="2.770450e-07" style="stop-color:#7DD3FC"/>
				<stop  offset="0.9883" style="stop-color:#F0F9FF"/>
			</linearGradient>
			<path style="fill:url(#SVGID_00000026163978396582520300000002389268311877253780_);" d="M3.8,52.3c0,0,0.1,0.2,0.3,0.4
				c0.2,0.3,0.5,0.6,0.8,1c0.2,0.2,0.4,0.4,0.6,0.7c0.2,0.2,0.4,0.4,0.7,0.7c0.5,0.5,1,0.9,1.5,1.3c0.6,0.4,1.1,0.8,1.6,1.1
				c0.6,0.3,1.1,0.5,1.6,0.7c1,0.3,1.7,0.2,2-0.4c-1.3-1.2-2.4-2.1-3.5-2.8c-0.5-0.4-1-0.7-1.5-1S7,53.5,6.6,53.3
				c-0.8-0.4-1.5-0.7-2-0.8C4,52.3,3.8,52.3,3.8,52.3L3.8,52.3z"/>
			
				<linearGradient id="SVGID_00000174571436935272719340000012998214221616352435_" gradientUnits="userSpaceOnUse" x1="15.0979" y1="63.7763" x2="-14.3711" y2="20.0241">
				<stop  offset="2.770450e-07" style="stop-color:#7DD3FC"/>
				<stop  offset="0.9883" style="stop-color:#F0F9FF"/>
			</linearGradient>
			<path style="fill:url(#SVGID_00000174571436935272719340000012998214221616352435_);" d="M1.1,44.5C1.1,44.5,1.1,44.5,1.1,44.5
				c0,0.2,0.1,0.3,0.1,0.4c0.1,0.3,0.3,0.7,0.6,1.1s0.6,1,0.9,1.5s0.8,1.1,1.2,1.6s0.9,1,1.3,1.4c0.4,0.4,0.9,0.8,1.3,1
				C7.3,52,8,52.1,8.4,51.7c-0.9-1.4-1.8-2.5-2.6-3.5c-0.4-0.5-0.8-0.9-1.2-1.3c-0.4-0.4-0.7-0.7-1.1-1c-0.7-0.6-1.3-1-1.7-1.2
				c-0.2-0.1-0.4-0.2-0.5-0.3C1.1,44.5,1.1,44.5,1.1,44.5L1.1,44.5z"/>
			
				<linearGradient id="SVGID_00000154392806241196302610000008475397943881618358_" gradientUnits="userSpaceOnUse" x1="17.0158" y1="62.4846" x2="-12.4532" y2="18.7323">
				<stop  offset="2.770450e-07" style="stop-color:#7DD3FC"/>
				<stop  offset="0.9883" style="stop-color:#F0F9FF"/>
			</linearGradient>
			<path style="fill:url(#SVGID_00000154392806241196302610000008475397943881618358_);" d="M0,36.2c0,0,0,0.2,0.1,0.5
				s0.2,0.7,0.3,1.2s0.3,1,0.5,1.6s0.5,1.2,0.8,1.8c0.6,1.2,1.2,2.2,1.9,2.9s1.3,1,1.7,0.6C5.1,44.4,5,44,4.8,43.6
				c-0.2-0.3-0.3-0.7-0.4-1c-0.3-0.6-0.6-1.2-0.9-1.8c-0.5-1-1.1-1.8-1.6-2.6c-0.3-0.3-0.5-0.7-0.7-0.9C1,37,0.8,36.8,0.6,36.7
				C0.2,36.4,0,36.2,0,36.2L0,36.2z"/>
			
				<linearGradient id="SVGID_00000128475316744459810390000011852462197663302305_" gradientUnits="userSpaceOnUse" x1="20.4693" y1="60.1585" x2="-8.9998" y2="16.4063">
				<stop  offset="2.770450e-07" style="stop-color:#7DD3FC"/>
				<stop  offset="0.9883" style="stop-color:#F0F9FF"/>
			</linearGradient>
			<path style="fill:url(#SVGID_00000128475316744459810390000011852462197663302305_);" d="M0.6,28c0,0,0,0.2,0,0.4
				c0,0.3,0,0.7,0.1,1.1c0,0.5,0.1,1,0.2,1.6c0,0.3,0.1,0.6,0.2,0.9s0.1,0.6,0.2,0.9c0.1,0.3,0.1,0.6,0.2,0.9
				c0.1,0.3,0.2,0.6,0.3,0.8c0.2,0.5,0.4,1,0.6,1.4c0.5,0.8,1,1.2,1.4,1c-0.4-3.1-1.2-5.2-1.9-6.8C1.6,29.5,1.2,29,1,28.6
				c-0.1-0.2-0.2-0.3-0.3-0.4C0.6,28,0.6,28,0.6,28L0.6,28z"/>
			
				<linearGradient id="SVGID_00000116955381567265962980000015237387708106519693_" gradientUnits="userSpaceOnUse" x1="25.0084" y1="57.1012" x2="-4.4607" y2="13.349">
				<stop  offset="2.770450e-07" style="stop-color:#7DD3FC"/>
				<stop  offset="0.9883" style="stop-color:#F0F9FF"/>
			</linearGradient>
			<path style="fill:url(#SVGID_00000116955381567265962980000015237387708106519693_);" d="M2.7,20.1c0,0-0.1,0.6-0.2,1.5
				c0,0.4-0.1,1-0.1,1.5s0,1.1,0,1.7c0,1.1,0.2,2.3,0.5,3.1c0.1,0.4,0.3,0.7,0.5,1c0.2,0.2,0.4,0.3,0.6,0.3c0-0.7,0.1-1.4,0.1-2
				s0-1.2-0.1-1.8c0-0.5-0.1-1-0.2-1.5c-0.1-0.5-0.1-0.9-0.2-1.3c-0.2-0.8-0.4-1.4-0.5-1.8C2.8,20.4,2.7,20.1,2.7,20.1L2.7,20.1z"/>
			
				<linearGradient id="SVGID_00000132802194020748365400000012021267105533507222_" gradientUnits="userSpaceOnUse" x1="30.2826" y1="53.5488" x2="0.8136" y2="9.7966">
				<stop  offset="2.770450e-07" style="stop-color:#7DD3FC"/>
				<stop  offset="0.9883" style="stop-color:#F0F9FF"/>
			</linearGradient>
			<path style="fill:url(#SVGID_00000132802194020748365400000012021267105533507222_);" d="M6.3,13.1c0,0-0.1,0.1-0.1,0.3
				C6.1,13.6,6,14,5.8,14.3c-0.1,0.4-0.3,0.8-0.4,1.3s-0.2,1-0.3,1.5c-0.1,0.5-0.2,1-0.2,1.5s0,1,0,1.4c0.1,0.8,0.3,1.4,0.7,1.5
				c0.8-2.5,1-4.5,1-6c0-0.7-0.1-1.3-0.2-1.7C6.4,13.3,6.3,13.1,6.3,13.1L6.3,13.1z"/>
			
				<linearGradient id="SVGID_00000175316210831650290360000007636411361513497019_" gradientUnits="userSpaceOnUse" x1="36.1263" y1="49.6128" x2="6.6573" y2="5.8606">
				<stop  offset="2.770450e-07" style="stop-color:#7DD3FC"/>
				<stop  offset="0.9883" style="stop-color:#F0F9FF"/>
			</linearGradient>
			<path style="fill:url(#SVGID_00000175316210831650290360000007636411361513497019_);" d="M11.1,7.2c0,0-0.1,0.1-0.2,0.3
				c-0.1,0.2-0.3,0.4-0.4,0.7c-0.4,0.6-0.8,1.5-1.1,2.3c-0.2,0.5-0.4,1-0.5,1.4s-0.2,0.9-0.2,1.2c-0.1,0.7,0,1.3,0.4,1.5
				c1.1-2.1,1.7-3.8,1.9-5.2c0.1-0.7,0.2-1.2,0.2-1.6C11.1,7.4,11.1,7.2,11.1,7.2L11.1,7.2z"/>
			
				<linearGradient id="SVGID_00000072249290227015919740000015039530895734586297_" gradientUnits="userSpaceOnUse" x1="42.1629" y1="45.5469" x2="12.6939" y2="1.7947">
				<stop  offset="2.770450e-07" style="stop-color:#7DD3FC"/>
				<stop  offset="0.9883" style="stop-color:#F0F9FF"/>
			</linearGradient>
			<path style="fill:url(#SVGID_00000072249290227015919740000015039530895734586297_);" d="M16.9,2.8c0,0-0.3,0.3-0.7,0.8
				C16,3.8,15.7,4,15.5,4.3s-0.5,0.6-0.7,1S14.4,6,14.2,6.4c-0.2,0.3-0.3,0.7-0.4,1c-0.2,0.6-0.2,1.1,0.1,1.4c1.4-1.6,2.2-3,2.7-4.1
				C16.8,3.6,16.9,2.8,16.9,2.8z"/>
			
				<linearGradient id="SVGID_00000034058591067006968140000000848664371344250503_" gradientUnits="userSpaceOnUse" x1="47.9732" y1="41.6334" x2="18.5042" y2="-2.1188">
				<stop  offset="2.770450e-07" style="stop-color:#7DD3FC"/>
				<stop  offset="0.9883" style="stop-color:#F0F9FF"/>
			</linearGradient>
			<path style="fill:url(#SVGID_00000034058591067006968140000000848664371344250503_);" d="M23.4,0c0,0-0.3,0.2-0.8,0.5
				s-1,0.7-1.6,1.2c-0.3,0.2-0.5,0.5-0.8,0.8C20,2.8,19.8,3,19.7,3.3c-0.3,0.5-0.4,1-0.2,1.2c0.4-0.2,0.7-0.5,1.1-0.8
				c0.3-0.2,0.6-0.5,0.9-0.8s0.5-0.5,0.7-0.8s0.4-0.5,0.5-0.7c0.3-0.5,0.5-0.8,0.6-1.1C23.3,0.2,23.4,0,23.4,0L23.4,0z"/>
		</g>
		<g>
			
				<linearGradient id="SVGID_00000132047225518300115460000012839368213268093375_" gradientUnits="userSpaceOnUse" x1="24.4988" y1="57.4444" x2="-4.9702" y2="13.6922">
				<stop  offset="2.770450e-07" style="stop-color:#7DD3FC"/>
				<stop  offset="0.9883" style="stop-color:#F0F9FF"/>
			</linearGradient>
			<path style="fill:url(#SVGID_00000132047225518300115460000012839368213268093375_);" d="M23.6,57.7c0,0,0.1,0.1,0.3,0.3
				c0.2,0.2,0.5,0.4,0.8,0.7c0.4,0.3,0.8,0.6,1.2,1c0.5,0.3,1,0.7,1.5,1.1c0.5,0.4,1,0.7,1.5,1.1c0.5,0.4,1,0.7,1.4,1.1
				c0.8,0.7,1.4,1.5,1.2,2.2c-1.8-0.2-3.3-0.8-4.4-1.6c-0.3-0.2-0.5-0.4-0.8-0.6c-0.2-0.2-0.5-0.4-0.7-0.7c-0.4-0.4-0.7-0.9-1-1.3
				c-0.3-0.4-0.5-0.9-0.6-1.2s-0.2-0.7-0.3-1C23.6,58.1,23.6,57.7,23.6,57.7L23.6,57.7z"/>
			
				<linearGradient id="SVGID_00000008845958933193373250000016683096764924140220_" gradientUnits="userSpaceOnUse" x1="21.3682" y1="59.553" x2="-8.1008" y2="15.8008">
				<stop  offset="2.770450e-07" style="stop-color:#7DD3FC"/>
				<stop  offset="0.9883" style="stop-color:#F0F9FF"/>
			</linearGradient>
			<path style="fill:url(#SVGID_00000008845958933193373250000016683096764924140220_);" d="M19,55.2c0,0,0.4,0.5,0.9,1.2
				c0.3,0.3,0.6,0.8,1,1.2c0.2,0.2,0.4,0.4,0.6,0.7c0.2,0.2,0.4,0.5,0.6,0.7s0.4,0.5,0.6,0.7s0.4,0.5,0.6,0.7
				c0.4,0.5,0.8,0.9,1.1,1.4c0.3,0.4,0.5,0.9,0.7,1.3c0.1,0.4,0.2,0.8,0,1.1c-1.7-0.6-2.9-1.6-3.8-2.6c-0.4-0.5-0.8-1-1.1-1.6
				c-0.1-0.3-0.3-0.5-0.4-0.8c-0.1-0.2-0.2-0.5-0.3-0.7c-0.3-0.9-0.4-1.8-0.5-2.3C19,55.6,19,55.3,19,55.2L19,55.2z"/>
			
				<linearGradient id="SVGID_00000119113628408108889170000006217743633911861134_" gradientUnits="userSpaceOnUse" x1="19.4984" y1="60.8124" x2="-9.9706" y2="17.0602">
				<stop  offset="2.770450e-07" style="stop-color:#7DD3FC"/>
				<stop  offset="0.9883" style="stop-color:#F0F9FF"/>
			</linearGradient>
			<path style="fill:url(#SVGID_00000119113628408108889170000006217743633911861134_);" d="M15,51.6c0,0,0.1,0.1,0.2,0.3
				c0.1,0.2,0.2,0.6,0.4,1s0.4,0.9,0.7,1.3c0.2,0.5,0.5,1,0.8,1.6c0.1,0.3,0.3,0.5,0.4,0.8s0.3,0.5,0.4,0.8c0.3,0.5,0.5,1.1,0.7,1.5
				c0.2,0.5,0.3,0.9,0.4,1.3c0,0.4,0,0.8-0.2,1c-1.4-1-2.4-2.3-3-3.4c-0.6-1.2-0.9-2.3-1-3.3c-0.1-0.5-0.1-0.9-0.1-1.3
				s0.1-0.7,0.1-1C14.9,51.9,15,51.6,15,51.6L15,51.6z"/>
			
				<linearGradient id="SVGID_00000036236733121191817590000004452359029703667353_" gradientUnits="userSpaceOnUse" x1="18.8692" y1="61.2362" x2="-10.5999" y2="17.484">
				<stop  offset="2.770450e-07" style="stop-color:#7DD3FC"/>
				<stop  offset="0.9883" style="stop-color:#F0F9FF"/>
			</linearGradient>
			<path style="fill:url(#SVGID_00000036236733121191817590000004452359029703667353_);" d="M11.8,46.9c0,0,0,0.1,0.1,0.4
				c0.1,0.2,0.1,0.6,0.2,1c0.1,0.2,0.1,0.4,0.2,0.7c0.1,0.2,0.1,0.5,0.2,0.8c0.1,0.5,0.3,1.1,0.4,1.7c0.2,0.6,0.3,1.2,0.5,1.7
				s0.3,1.1,0.4,1.6c0.2,1,0.1,1.8-0.3,2.2c-1.1-1.3-1.7-2.7-2.1-3.9c-0.2-0.6-0.3-1.2-0.3-1.8s-0.1-1.1,0-1.5
				c0.1-0.9,0.2-1.6,0.4-2.1C11.6,47.2,11.8,46.9,11.8,46.9L11.8,46.9z"/>
			
				<linearGradient id="SVGID_00000030477065897593781080000016284193371071661452_" gradientUnits="userSpaceOnUse" x1="19.1606" y1="61.0399" x2="-10.3084" y2="17.2877">
				<stop  offset="2.770450e-07" style="stop-color:#7DD3FC"/>
				<stop  offset="0.9883" style="stop-color:#F0F9FF"/>
			</linearGradient>
			<path style="fill:url(#SVGID_00000030477065897593781080000016284193371071661452_);" d="M9.5,41.5L9.5,41.5c0,0.2,0,0.3,0,0.4
				c0,0.2,0,0.6,0,1s0.1,0.9,0.1,1.4s0.1,1.1,0.1,1.7c0.1,0.6,0.1,1.2,0.1,1.7s0,1.1,0,1.6c0,1-0.2,1.7-0.7,2
				c-0.7-1.6-1-3.1-1.1-4.3c0-0.6,0-1.2,0-1.7c0.1-0.5,0.2-1,0.3-1.4c0.2-0.8,0.6-1.4,0.8-1.8C9.2,41.9,9.3,41.8,9.5,41.5
				C9.5,41.5,9.5,41.5,9.5,41.5L9.5,41.5z"/>
			
				<linearGradient id="SVGID_00000080193749857023011270000006641656961965349504_" gradientUnits="userSpaceOnUse" x1="20.7734" y1="59.9537" x2="-8.6957" y2="16.2015">
				<stop  offset="2.770450e-07" style="stop-color:#7DD3FC"/>
				<stop  offset="0.9883" style="stop-color:#F0F9FF"/>
			</linearGradient>
			<path style="fill:url(#SVGID_00000080193749857023011270000006641656961965349504_);" d="M8.4,35.6c0,0-0.1,0.5-0.2,1.3
				c-0.1,0.4-0.1,0.8-0.2,1.3c-0.1,0.5-0.1,1-0.2,1.5c-0.2,1.1-0.3,2.2-0.5,3c-0.2,0.9-0.5,1.5-1.1,1.6C6.1,44,6.1,43.6,6,43.2
				c-0.1-0.4-0.1-0.7-0.1-1.1c-0.1-0.7,0-1.3,0.1-1.9c0.2-1.2,0.5-2.1,0.9-2.8c0.2-0.3,0.4-0.6,0.6-0.9C7.7,36.3,7.9,36,8,35.9
				C8.2,35.7,8.4,35.6,8.4,35.6L8.4,35.6z"/>
			
				<linearGradient id="SVGID_00000027576572750935173310000008335770128556480681_" gradientUnits="userSpaceOnUse" x1="23.3962" y1="58.1871" x2="-6.0728" y2="14.4349">
				<stop  offset="2.770450e-07" style="stop-color:#7DD3FC"/>
				<stop  offset="0.9883" style="stop-color:#F0F9FF"/>
			</linearGradient>
			<path style="fill:url(#SVGID_00000027576572750935173310000008335770128556480681_);" d="M8.4,29.5c0,0-0.1,0.1-0.1,0.3
				C8.2,30,8.1,30.3,8,30.6c-0.1,0.3-0.3,0.7-0.4,1.2c-0.1,0.2-0.2,0.4-0.2,0.7c-0.1,0.2-0.2,0.5-0.2,0.7c-0.2,0.5-0.3,0.9-0.5,1.4
				s-0.4,0.9-0.6,1.2C5.7,36.5,5.3,37,4.8,37c0-0.8,0-1.4,0.1-2.1C5,34.5,5,34.2,5.1,34c0.1-0.3,0.2-0.5,0.2-0.8
				c0.3-1,0.8-1.8,1.3-2.3s0.9-0.9,1.2-1.1c0.2-0.1,0.3-0.2,0.4-0.2C8.4,29.5,8.4,29.5,8.4,29.5L8.4,29.5z"/>
			
				<linearGradient id="SVGID_00000176030363212832943500000001232282971907944380_" gradientUnits="userSpaceOnUse" x1="27.0551" y1="55.7226" x2="-2.4139" y2="11.9704">
				<stop  offset="2.770450e-07" style="stop-color:#7DD3FC"/>
				<stop  offset="0.9883" style="stop-color:#F0F9FF"/>
			</linearGradient>
			<path style="fill:url(#SVGID_00000176030363212832943500000001232282971907944380_);" d="M9.7,23.5c0,0-0.2,0.4-0.6,0.9
				c-0.2,0.3-0.4,0.6-0.6,1c-0.2,0.4-0.4,0.7-0.7,1.1c-0.5,0.8-1,1.6-1.5,2.1c-0.2,0.3-0.5,0.5-0.7,0.6s-0.4,0.2-0.7,0.1
				C5,28.6,5.2,28,5.4,27.5s0.5-1,0.7-1.4c0.3-0.4,0.5-0.8,0.8-1c0.3-0.3,0.6-0.5,0.8-0.7c0.5-0.4,1-0.6,1.3-0.7
				C9.5,23.5,9.7,23.4,9.7,23.5L9.7,23.5z"/>
			
				<linearGradient id="SVGID_00000101786493066398655270000000827392154971545271_" gradientUnits="userSpaceOnUse" x1="31.4273" y1="52.7778" x2="1.9583" y2="9.0256">
				<stop  offset="2.770450e-07" style="stop-color:#7DD3FC"/>
				<stop  offset="0.9883" style="stop-color:#F0F9FF"/>
			</linearGradient>
			<path style="fill:url(#SVGID_00000101786493066398655270000000827392154971545271_);" d="M12.1,17.9c0,0-1.1,1-2.3,2.3
				c-0.3,0.3-0.6,0.6-0.9,0.9S8.3,21.6,8,21.8c-0.6,0.4-1,0.6-1.4,0.3c0.2-0.6,0.5-1.1,0.8-1.5s0.6-0.8,0.9-1.1
				c0.6-0.6,1.2-1,1.8-1.2c0.5-0.2,1-0.3,1.3-0.3S12.1,17.9,12.1,17.9L12.1,17.9z"/>
			
				<linearGradient id="SVGID_00000029736553049496178850000017633781468694803641_" gradientUnits="userSpaceOnUse" x1="36.5112" y1="49.3536" x2="7.0421" y2="5.6014">
				<stop  offset="2.770450e-07" style="stop-color:#7DD3FC"/>
				<stop  offset="0.9883" style="stop-color:#F0F9FF"/>
			</linearGradient>
			<path style="fill:url(#SVGID_00000029736553049496178850000017633781468694803641_);" d="M15.6,13c0,0-0.1,0-0.2,0.1
				s-0.3,0.2-0.6,0.3c-0.5,0.3-1.1,0.7-1.7,1c-0.3,0.2-0.6,0.4-0.9,0.5s-0.6,0.3-0.9,0.4c-0.3,0.1-0.6,0.2-0.8,0.2s-0.4-0.1-0.5-0.2
				c1.4-1.8,2.9-2.4,3.9-2.6c0.5-0.1,1,0,1.2,0C15.4,12.9,15.6,13,15.6,13L15.6,13z"/>
			
				<linearGradient id="SVGID_00000094598668836066736220000016174886104531939479_" gradientUnits="userSpaceOnUse" x1="41.6761" y1="45.8747" x2="12.2071" y2="2.1225">
				<stop  offset="2.770450e-07" style="stop-color:#7DD3FC"/>
				<stop  offset="0.9883" style="stop-color:#F0F9FF"/>
			</linearGradient>
			<path style="fill:url(#SVGID_00000094598668836066736220000016174886104531939479_);" d="M19.9,9.1c0,0-0.3,0.1-0.8,0.2
				c-0.2,0.1-0.5,0.1-0.8,0.2s-0.6,0.2-0.9,0.3s-0.6,0.2-1,0.2c-0.3,0.1-0.6,0.1-0.9,0.2c-0.5,0-1-0.1-1.1-0.4
				c1.5-1.3,3-1.4,3.9-1.3C19.4,8.8,19.9,9.2,19.9,9.1L19.9,9.1z"/>
			
				<linearGradient id="SVGID_00000051349298056636214910000003514047745608300695_" gradientUnits="userSpaceOnUse" x1="46.9014" y1="42.3553" x2="17.4324" y2="-1.3969">
				<stop  offset="2.770450e-07" style="stop-color:#7DD3FC"/>
				<stop  offset="0.9883" style="stop-color:#F0F9FF"/>
			</linearGradient>
			<path style="fill:url(#SVGID_00000051349298056636214910000003514047745608300695_);" d="M25,6.5c0,0-0.3,0-0.7,0
				c-0.2,0-0.5,0-0.7,0c-0.3,0-0.6,0-0.9,0s-0.6,0-0.9,0s-0.6,0-0.8-0.1c-0.5-0.1-0.9-0.3-0.9-0.6c0.4-0.2,0.8-0.3,1.1-0.4
				c0.4-0.1,0.7-0.1,1-0.1s0.6,0,0.9,0.1s0.5,0.1,0.7,0.2c0.4,0.2,0.7,0.4,0.9,0.6S25,6.5,25,6.5L25,6.5z"/>
		</g>
		
			<linearGradient id="SVGID_00000072243888871773565230000002278730164842352529_" gradientUnits="userSpaceOnUse" x1="51.733" y1="39.101" x2="22.2639" y2="-4.6512">
			<stop  offset="2.770450e-07" style="stop-color:#7DD3FC"/>
			<stop  offset="0.9883" style="stop-color:#F0F9FF"/>
		</linearGradient>
		<path style="fill:url(#SVGID_00000072243888871773565230000002278730164842352529_);" d="M31.6,2.1c0,0-0.4-0.1-1.1-0.1
			c-0.3,0-0.7,0-1.1-0.1c-0.2,0-0.4,0-0.7,0c-0.2,0-0.5,0-0.7,0S27.5,2,27.3,2s-0.5,0.1-0.7,0.1c-0.5,0.1-1,0.2-1.4,0.4
			C24.7,2.6,24.3,2.8,24,3c-0.2,0.1-0.3,0.2-0.5,0.3c-0.1,0.1-0.3,0.2-0.4,0.4c0.3,0,0.7,0,1.1,0s0.8-0.1,1.3-0.2
			c0.2,0,0.5-0.1,0.7-0.2c0.2,0,0.5-0.1,0.7-0.2c0.1,0.1,0.3,0,0.6-0.1c0.2,0,0.5-0.1,0.7-0.2c0.2-0.1,0.5-0.1,0.7-0.2
			c0.2,0,0.4-0.1,0.6-0.1c0.4-0.1,0.8-0.2,1.1-0.2C31.2,2.2,31.6,2.1,31.6,2.1L31.6,2.1z"/>
	</g>
</g>
</svg>
